<svg width="1728" height="743" viewBox="0 0 1728 743" fill="none" xmlns="http://www.w3.org/2000/svg">
<rect x="-7" y="123" width="1735" height="620" fill="#00C4DE" fill-opacity="0.1"/>
<g filter="url(#filter0_bd_469_1167)">
<rect x="239" y="2" width="359" height="281" rx="10" fill="white" fill-opacity="0.65" shape-rendering="crispEdges"/>
<rect x="238" y="1" width="361" height="283" rx="11" stroke="white" stroke-width="2" style="mix-blend-mode:overlay" shape-rendering="crispEdges"/>
</g>
<path d="M334.025 142V94L339.275 99.25H323.525V89.5H346.175V142H334.025ZM377.795 142.9C373.495 142.9 369.645 141.85 366.245 139.75C362.845 137.6 360.17 134.5 358.22 130.45C356.27 126.4 355.295 121.5 355.295 115.75C355.295 110 356.27 105.1 358.22 101.05C360.17 97 362.845 93.925 366.245 91.825C369.645 89.675 373.495 88.6 377.795 88.6C382.145 88.6 385.995 89.675 389.345 91.825C392.745 93.925 395.42 97 397.37 101.05C399.32 105.1 400.295 110 400.295 115.75C400.295 121.5 399.32 126.4 397.37 130.45C395.42 134.5 392.745 137.6 389.345 139.75C385.995 141.85 382.145 142.9 377.795 142.9ZM377.795 132.625C379.845 132.625 381.62 132.05 383.12 130.9C384.67 129.75 385.87 127.925 386.72 125.425C387.62 122.925 388.07 119.7 388.07 115.75C388.07 111.8 387.62 108.575 386.72 106.075C385.87 103.575 384.67 101.75 383.12 100.6C381.62 99.45 379.845 98.875 377.795 98.875C375.795 98.875 374.02 99.45 372.47 100.6C370.97 101.75 369.77 103.575 368.87 106.075C368.02 108.575 367.595 111.8 367.595 115.75C367.595 119.7 368.02 122.925 368.87 125.425C369.77 127.925 370.97 129.75 372.47 130.9C374.02 132.05 375.795 132.625 377.795 132.625ZM428.698 142.9C424.398 142.9 420.548 141.85 417.148 139.75C413.748 137.6 411.073 134.5 409.123 130.45C407.173 126.4 406.198 121.5 406.198 115.75C406.198 110 407.173 105.1 409.123 101.05C411.073 97 413.748 93.925 417.148 91.825C420.548 89.675 424.398 88.6 428.698 88.6C433.048 88.6 436.898 89.675 440.248 91.825C443.648 93.925 446.323 97 448.273 101.05C450.223 105.1 451.198 110 451.198 115.75C451.198 121.5 450.223 126.4 448.273 130.45C446.323 134.5 443.648 137.6 440.248 139.75C436.898 141.85 433.048 142.9 428.698 142.9ZM428.698 132.625C430.748 132.625 432.523 132.05 434.023 130.9C435.573 129.75 436.773 127.925 437.623 125.425C438.523 122.925 438.973 119.7 438.973 115.75C438.973 111.8 438.523 108.575 437.623 106.075C436.773 103.575 435.573 101.75 434.023 100.6C432.523 99.45 430.748 98.875 428.698 98.875C426.698 98.875 424.923 99.45 423.373 100.6C421.873 101.75 420.673 103.575 419.773 106.075C418.923 108.575 418.498 111.8 418.498 115.75C418.498 119.7 418.923 122.925 419.773 125.425C420.673 127.925 421.873 129.75 423.373 130.9C424.923 132.05 426.698 132.625 428.698 132.625ZM472.021 133.075V98.425H481.696V133.075H472.021ZM459.046 120.325V111.175H494.746V120.325H459.046Z" fill="#00C4DE"/>
<path d="M281.048 206.432C279.104 206.432 277.292 206.12 275.612 205.496C273.956 204.848 272.516 203.936 271.292 202.76C270.068 201.584 269.108 200.204 268.412 198.62C267.74 197.036 267.404 195.296 267.404 193.4C267.404 191.504 267.74 189.764 268.412 188.18C269.108 186.596 270.068 185.216 271.292 184.04C272.54 182.864 273.992 181.964 275.648 181.34C277.304 180.692 279.116 180.368 281.084 180.368C283.268 180.368 285.236 180.752 286.988 181.52C288.764 182.264 290.252 183.368 291.452 184.832L287.708 188.288C286.844 187.304 285.884 186.572 284.828 186.092C283.772 185.588 282.62 185.336 281.372 185.336C280.196 185.336 279.116 185.528 278.132 185.912C277.148 186.296 276.296 186.848 275.576 187.568C274.856 188.288 274.292 189.14 273.884 190.124C273.5 191.108 273.308 192.2 273.308 193.4C273.308 194.6 273.5 195.692 273.884 196.676C274.292 197.66 274.856 198.512 275.576 199.232C276.296 199.952 277.148 200.504 278.132 200.888C279.116 201.272 280.196 201.464 281.372 201.464C282.62 201.464 283.772 201.224 284.828 200.744C285.884 200.24 286.844 199.484 287.708 198.476L291.452 201.932C290.252 203.396 288.764 204.512 286.988 205.28C285.236 206.048 283.256 206.432 281.048 206.432ZM303.938 206.288C301.73 206.288 299.786 205.856 298.106 204.992C296.45 204.128 295.166 202.952 294.254 201.464C293.342 199.952 292.886 198.236 292.886 196.316C292.886 194.372 293.33 192.656 294.218 191.168C295.13 189.656 296.366 188.48 297.926 187.64C299.486 186.776 301.25 186.344 303.218 186.344C305.114 186.344 306.818 186.752 308.33 187.568C309.866 188.36 311.078 189.512 311.966 191.024C312.854 192.512 313.298 194.3 313.298 196.388C313.298 196.604 313.286 196.856 313.262 197.144C313.238 197.408 313.214 197.66 313.19 197.9H297.458V194.624H310.238L308.078 195.596C308.078 194.588 307.874 193.712 307.466 192.968C307.058 192.224 306.494 191.648 305.774 191.24C305.054 190.808 304.214 190.592 303.254 190.592C302.294 190.592 301.442 190.808 300.698 191.24C299.978 191.648 299.414 192.236 299.006 193.004C298.598 193.748 298.394 194.636 298.394 195.668V196.532C298.394 197.588 298.622 198.524 299.078 199.34C299.558 200.132 300.218 200.744 301.058 201.176C301.922 201.584 302.93 201.788 304.082 201.788C305.114 201.788 306.014 201.632 306.782 201.32C307.574 201.008 308.294 200.54 308.942 199.916L311.93 203.156C311.042 204.164 309.926 204.944 308.582 205.496C307.238 206.024 305.69 206.288 303.938 206.288ZM317.037 206V186.632H322.401V192.104L321.645 190.52C322.221 189.152 323.145 188.12 324.417 187.424C325.689 186.704 327.237 186.344 329.061 186.344V191.528C328.821 191.504 328.605 191.492 328.413 191.492C328.221 191.468 328.017 191.456 327.801 191.456C326.265 191.456 325.017 191.9 324.057 192.788C323.121 193.652 322.653 195.008 322.653 196.856V206H317.037ZM340.989 206.288C338.709 206.288 336.933 205.712 335.661 204.56C334.389 203.384 333.753 201.644 333.753 199.34V182.348H339.369V199.268C339.369 200.084 339.585 200.72 340.017 201.176C340.449 201.608 341.037 201.824 341.781 201.824C342.669 201.824 343.425 201.584 344.049 201.104L345.561 205.064C344.985 205.472 344.289 205.784 343.473 206C342.681 206.192 341.853 206.288 340.989 206.288ZM330.765 191.384V187.064H344.193V191.384H330.765ZM348.713 206V186.632H354.329V206H348.713ZM351.521 183.932C350.489 183.932 349.649 183.632 349.001 183.032C348.353 182.432 348.029 181.688 348.029 180.8C348.029 179.912 348.353 179.168 349.001 178.568C349.649 177.968 350.489 177.668 351.521 177.668C352.553 177.668 353.393 177.956 354.041 178.532C354.689 179.084 355.013 179.804 355.013 180.692C355.013 181.628 354.689 182.408 354.041 183.032C353.417 183.632 352.577 183.932 351.521 183.932ZM360.225 206V186.2C360.225 184.016 360.873 182.276 362.169 180.98C363.465 179.66 365.313 179 367.713 179C368.529 179 369.309 179.084 370.053 179.252C370.821 179.42 371.469 179.684 371.997 180.044L370.521 184.112C370.209 183.896 369.861 183.728 369.477 183.608C369.093 183.488 368.685 183.428 368.253 183.428C367.437 183.428 366.801 183.668 366.345 184.148C365.913 184.604 365.697 185.3 365.697 186.236V188.036L365.841 190.448V206H360.225ZM357.237 191.384V187.064H370.665V191.384H357.237ZM373.833 206V186.632H379.449V206H373.833ZM376.641 183.932C375.609 183.932 374.769 183.632 374.121 183.032C373.473 182.432 373.149 181.688 373.149 180.8C373.149 179.912 373.473 179.168 374.121 178.568C374.769 177.968 375.609 177.668 376.641 177.668C377.673 177.668 378.513 177.956 379.161 178.532C379.809 179.084 380.133 179.804 380.133 180.692C380.133 181.628 379.809 182.408 379.161 183.032C378.537 183.632 377.697 183.932 376.641 183.932ZM394.255 206.288C392.047 206.288 390.103 205.856 388.423 204.992C386.767 204.128 385.483 202.952 384.571 201.464C383.659 199.952 383.203 198.236 383.203 196.316C383.203 194.372 383.647 192.656 384.535 191.168C385.447 189.656 386.683 188.48 388.243 187.64C389.803 186.776 391.567 186.344 393.535 186.344C395.431 186.344 397.135 186.752 398.647 187.568C400.183 188.36 401.395 189.512 402.283 191.024C403.171 192.512 403.615 194.3 403.615 196.388C403.615 196.604 403.603 196.856 403.579 197.144C403.555 197.408 403.531 197.66 403.507 197.9H387.775V194.624H400.555L398.395 195.596C398.395 194.588 398.191 193.712 397.783 192.968C397.375 192.224 396.811 191.648 396.091 191.24C395.371 190.808 394.531 190.592 393.571 190.592C392.611 190.592 391.759 190.808 391.015 191.24C390.295 191.648 389.731 192.236 389.323 193.004C388.915 193.748 388.711 194.636 388.711 195.668V196.532C388.711 197.588 388.939 198.524 389.395 199.34C389.875 200.132 390.535 200.744 391.375 201.176C392.239 201.584 393.247 201.788 394.399 201.788C395.431 201.788 396.331 201.632 397.099 201.32C397.891 201.008 398.611 200.54 399.259 199.916L402.247 203.156C401.359 204.164 400.243 204.944 398.899 205.496C397.555 206.024 396.007 206.288 394.255 206.288ZM415.67 206.288C413.846 206.288 412.202 205.88 410.738 205.064C409.274 204.224 408.11 203.06 407.246 201.572C406.406 200.084 405.986 198.332 405.986 196.316C405.986 194.276 406.406 192.512 407.246 191.024C408.11 189.536 409.274 188.384 410.738 187.568C412.202 186.752 413.846 186.344 415.67 186.344C417.302 186.344 418.73 186.704 419.954 187.424C421.178 188.144 422.126 189.236 422.798 190.7C423.47 192.164 423.806 194.036 423.806 196.316C423.806 198.572 423.482 200.444 422.834 201.932C422.186 203.396 421.25 204.488 420.026 205.208C418.826 205.928 417.374 206.288 415.67 206.288ZM416.642 201.68C417.554 201.68 418.382 201.464 419.126 201.032C419.87 200.6 420.458 199.988 420.89 199.196C421.346 198.38 421.574 197.42 421.574 196.316C421.574 195.188 421.346 194.228 420.89 193.436C420.458 192.644 419.87 192.032 419.126 191.6C418.382 191.168 417.554 190.952 416.642 190.952C415.706 190.952 414.866 191.168 414.122 191.6C413.378 192.032 412.778 192.644 412.322 193.436C411.89 194.228 411.674 195.188 411.674 196.316C411.674 197.42 411.89 198.38 412.322 199.196C412.778 199.988 413.378 200.6 414.122 201.032C414.866 201.464 415.706 201.68 416.642 201.68ZM421.718 206V202.04L421.826 196.28L421.466 190.556V179.288H427.082V206H421.718ZM442.871 206V180.8H454.319C457.055 180.8 459.467 181.328 461.555 182.384C463.643 183.416 465.275 184.868 466.451 186.74C467.627 188.612 468.215 190.832 468.215 193.4C468.215 195.944 467.627 198.164 466.451 200.06C465.275 201.932 463.643 203.396 461.555 204.452C459.467 205.484 457.055 206 454.319 206H442.871ZM448.703 201.212H454.031C455.711 201.212 457.163 200.9 458.387 200.276C459.635 199.628 460.595 198.716 461.267 197.54C461.963 196.364 462.311 194.984 462.311 193.4C462.311 191.792 461.963 190.412 461.267 189.26C460.595 188.084 459.635 187.184 458.387 186.56C457.163 185.912 455.711 185.588 454.031 185.588H448.703V201.212ZM481.433 206.288C479.369 206.288 477.533 205.856 475.925 204.992C474.341 204.128 473.081 202.952 472.145 201.464C471.233 199.952 470.777 198.236 470.777 196.316C470.777 194.372 471.233 192.656 472.145 191.168C473.081 189.656 474.341 188.48 475.925 187.64C477.533 186.776 479.369 186.344 481.433 186.344C483.473 186.344 485.297 186.776 486.905 187.64C488.513 188.48 489.773 189.644 490.685 191.132C491.597 192.62 492.053 194.348 492.053 196.316C492.053 198.236 491.597 199.952 490.685 201.464C489.773 202.952 488.513 204.128 486.905 204.992C485.297 205.856 483.473 206.288 481.433 206.288ZM481.433 201.68C482.369 201.68 483.209 201.464 483.953 201.032C484.697 200.6 485.285 199.988 485.717 199.196C486.149 198.38 486.365 197.42 486.365 196.316C486.365 195.188 486.149 194.228 485.717 193.436C485.285 192.644 484.697 192.032 483.953 191.6C483.209 191.168 482.369 190.952 481.433 190.952C480.497 190.952 479.657 191.168 478.913 191.6C478.169 192.032 477.569 192.644 477.113 193.436C476.681 194.228 476.465 195.188 476.465 196.316C476.465 197.42 476.681 198.38 477.113 199.196C477.569 199.988 478.169 200.6 478.913 201.032C479.657 201.464 480.497 201.68 481.433 201.68ZM505.167 206.288C503.079 206.288 501.219 205.868 499.587 205.028C497.955 204.164 496.671 202.976 495.735 201.464C494.823 199.952 494.367 198.236 494.367 196.316C494.367 194.372 494.823 192.656 495.735 191.168C496.671 189.656 497.955 188.48 499.587 187.64C501.219 186.776 503.079 186.344 505.167 186.344C507.207 186.344 508.983 186.776 510.495 187.64C512.007 188.48 513.123 189.692 513.843 191.276L509.487 193.616C508.983 192.704 508.347 192.032 507.579 191.6C506.835 191.168 506.019 190.952 505.131 190.952C504.171 190.952 503.307 191.168 502.539 191.6C501.771 192.032 501.159 192.644 500.703 193.436C500.271 194.228 500.055 195.188 500.055 196.316C500.055 197.444 500.271 198.404 500.703 199.196C501.159 199.988 501.771 200.6 502.539 201.032C503.307 201.464 504.171 201.68 505.131 201.68C506.019 201.68 506.835 201.476 507.579 201.068C508.347 200.636 508.983 199.952 509.487 199.016L513.843 201.392C513.123 202.952 512.007 204.164 510.495 205.028C508.983 205.868 507.207 206.288 505.167 206.288ZM525.278 206.288C522.998 206.288 521.222 205.712 519.95 204.56C518.678 203.384 518.042 201.644 518.042 199.34V182.348H523.658V199.268C523.658 200.084 523.874 200.72 524.306 201.176C524.738 201.608 525.326 201.824 526.07 201.824C526.958 201.824 527.714 201.584 528.338 201.104L529.85 205.064C529.274 205.472 528.578 205.784 527.762 206C526.97 206.192 526.142 206.288 525.278 206.288ZM515.054 191.384V187.064H528.482V191.384H515.054ZM541.621 206.288C539.557 206.288 537.721 205.856 536.113 204.992C534.529 204.128 533.269 202.952 532.333 201.464C531.421 199.952 530.965 198.236 530.965 196.316C530.965 194.372 531.421 192.656 532.333 191.168C533.269 189.656 534.529 188.48 536.113 187.64C537.721 186.776 539.557 186.344 541.621 186.344C543.661 186.344 545.485 186.776 547.093 187.64C548.701 188.48 549.961 189.644 550.873 191.132C551.785 192.62 552.241 194.348 552.241 196.316C552.241 198.236 551.785 199.952 550.873 201.464C549.961 202.952 548.701 204.128 547.093 204.992C545.485 205.856 543.661 206.288 541.621 206.288ZM541.621 201.68C542.557 201.68 543.397 201.464 544.141 201.032C544.885 200.6 545.473 199.988 545.905 199.196C546.337 198.38 546.553 197.42 546.553 196.316C546.553 195.188 546.337 194.228 545.905 193.436C545.473 192.644 544.885 192.032 544.141 191.6C543.397 191.168 542.557 190.952 541.621 190.952C540.685 190.952 539.845 191.168 539.101 191.6C538.357 192.032 537.757 192.644 537.301 193.436C536.869 194.228 536.653 195.188 536.653 196.316C536.653 197.42 536.869 198.38 537.301 199.196C537.757 199.988 538.357 200.6 539.101 201.032C539.845 201.464 540.685 201.68 541.621 201.68ZM555.994 206V186.632H561.358V192.104L560.602 190.52C561.178 189.152 562.102 188.12 563.374 187.424C564.646 186.704 566.194 186.344 568.018 186.344V191.528C567.778 191.504 567.562 191.492 567.37 191.492C567.178 191.468 566.974 191.456 566.758 191.456C565.222 191.456 563.974 191.9 563.014 192.788C562.078 193.652 561.61 195.008 561.61 196.856V206H555.994ZM578.014 206.288C576.358 206.288 574.762 206.096 573.226 205.712C571.714 205.304 570.514 204.8 569.626 204.2L571.498 200.168C572.386 200.72 573.43 201.176 574.63 201.536C575.854 201.872 577.054 202.04 578.23 202.04C579.526 202.04 580.438 201.884 580.966 201.572C581.518 201.26 581.794 200.828 581.794 200.276C581.794 199.82 581.578 199.484 581.146 199.268C580.738 199.028 580.186 198.848 579.49 198.728C578.794 198.608 578.026 198.488 577.186 198.368C576.37 198.248 575.542 198.092 574.702 197.9C573.862 197.684 573.094 197.372 572.398 196.964C571.702 196.556 571.138 196.004 570.706 195.308C570.298 194.612 570.094 193.712 570.094 192.608C570.094 191.384 570.442 190.304 571.138 189.368C571.858 188.432 572.89 187.7 574.234 187.172C575.578 186.62 577.186 186.344 579.058 186.344C580.378 186.344 581.722 186.488 583.09 186.776C584.458 187.064 585.598 187.484 586.51 188.036L584.638 192.032C583.702 191.48 582.754 191.108 581.794 190.916C580.858 190.7 579.946 190.592 579.058 190.592C577.81 190.592 576.898 190.76 576.322 191.096C575.746 191.432 575.458 191.864 575.458 192.392C575.458 192.872 575.662 193.232 576.07 193.472C576.502 193.712 577.066 193.904 577.762 194.048C578.458 194.192 579.214 194.324 580.03 194.444C580.87 194.54 581.71 194.696 582.55 194.912C583.39 195.128 584.146 195.44 584.818 195.848C585.514 196.232 586.078 196.772 586.51 197.468C586.942 198.14 587.158 199.028 587.158 200.132C587.158 201.332 586.798 202.4 586.078 203.336C585.358 204.248 584.314 204.968 582.946 205.496C581.602 206.024 579.958 206.288 578.014 206.288Z" fill="black" fill-opacity="0.62"/>
<g filter="url(#filter1_bd_469_1167)">
<rect x="685" y="2" width="359" height="281" rx="10" fill="white" fill-opacity="0.65" shape-rendering="crispEdges"/>
<rect x="684" y="1" width="361" height="283" rx="11" stroke="white" stroke-width="2" style="mix-blend-mode:overlay" shape-rendering="crispEdges"/>
</g>
<path d="M837.04 125V72.5H846.79V125H837.04ZM882.815 84.5C886.015 84.5 888.865 85.125 891.365 86.375C893.915 87.625 895.915 89.55 897.365 92.15C898.815 94.7 899.54 98 899.54 102.05V125H890.165V103.25C890.165 99.7 889.315 97.05 887.615 95.3C885.965 93.55 883.64 92.675 880.64 92.675C878.44 92.675 876.49 93.125 874.79 94.025C873.09 94.925 871.765 96.275 870.815 98.075C869.915 99.825 869.465 102.05 869.465 104.75V125H860.09V84.95H869.015V95.75L867.44 92.45C868.84 89.9 870.865 87.95 873.515 86.6C876.215 85.2 879.315 84.5 882.815 84.5ZM783.28 216V163.5H804.88C809.53 163.5 813.505 164.25 816.805 165.75C820.155 167.25 822.73 169.4 824.53 172.2C826.33 175 827.23 178.325 827.23 182.175C827.23 186.025 826.33 189.35 824.53 192.15C822.73 194.95 820.155 197.1 816.805 198.6C813.505 200.1 809.53 200.85 804.88 200.85H788.68L793.03 196.275V216H783.28ZM793.03 197.325L788.68 192.6H804.43C808.73 192.6 811.955 191.7 814.105 189.9C816.305 188.05 817.405 185.475 817.405 182.175C817.405 178.825 816.305 176.25 814.105 174.45C811.955 172.65 808.73 171.75 804.43 171.75H788.68L793.03 166.95V197.325ZM853.749 216.525C850.349 216.525 847.349 215.9 844.749 214.65C842.149 213.35 840.124 211.4 838.674 208.8C837.224 206.15 836.499 202.825 836.499 198.825V175.95H845.874V197.55C845.874 201.15 846.674 203.85 848.274 205.65C849.924 207.4 852.249 208.275 855.249 208.275C857.449 208.275 859.349 207.825 860.949 206.925C862.599 206.025 863.874 204.675 864.774 202.875C865.724 201.075 866.199 198.85 866.199 196.2V175.95H875.574V216H866.649V205.2L868.224 208.5C866.874 211.1 864.899 213.1 862.299 214.5C859.699 215.85 856.849 216.525 853.749 216.525ZM910.574 175.5C913.774 175.5 916.624 176.125 919.124 177.375C921.674 178.625 923.674 180.55 925.124 183.15C926.574 185.7 927.299 189 927.299 193.05V216H917.924V194.25C917.924 190.7 917.074 188.05 915.374 186.3C913.724 184.55 911.399 183.675 908.399 183.675C906.199 183.675 904.249 184.125 902.549 185.025C900.849 185.925 899.524 187.275 898.574 189.075C897.674 190.825 897.224 193.05 897.224 195.75V216H887.849V175.95H896.774V186.75L895.199 183.45C896.599 180.9 898.624 178.95 901.274 177.6C903.974 176.2 907.074 175.5 910.574 175.5ZM958.09 216.525C953.64 216.525 949.74 215.65 946.39 213.9C943.09 212.1 940.515 209.65 938.665 206.55C936.865 203.45 935.965 199.925 935.965 195.975C935.965 191.975 936.84 188.45 938.59 185.4C940.39 182.3 942.84 179.875 945.94 178.125C949.09 176.375 952.665 175.5 956.665 175.5C960.565 175.5 964.04 176.35 967.09 178.05C970.14 179.75 972.54 182.15 974.29 185.25C976.04 188.35 976.915 192 976.915 196.2C976.915 196.6 976.89 197.05 976.84 197.55C976.84 198.05 976.815 198.525 976.765 198.975H943.39V192.75H971.815L968.14 194.7C968.19 192.4 967.715 190.375 966.715 188.625C965.715 186.875 964.34 185.5 962.59 184.5C960.89 183.5 958.915 183 956.665 183C954.365 183 952.34 183.5 950.59 184.5C948.89 185.5 947.54 186.9 946.54 188.7C945.59 190.45 945.115 192.525 945.115 194.925V196.425C945.115 198.825 945.665 200.95 946.765 202.8C947.865 204.65 949.415 206.075 951.415 207.075C953.415 208.075 955.715 208.575 958.315 208.575C960.565 208.575 962.59 208.225 964.39 207.525C966.19 206.825 967.79 205.725 969.19 204.225L974.215 210C972.415 212.1 970.14 213.725 967.39 214.875C964.69 215.975 961.59 216.525 958.09 216.525Z" fill="#00C4DE"/>
<g filter="url(#filter2_bd_469_1167)">
<rect x="1131" y="2" width="359" height="281" rx="10" fill="white" fill-opacity="0.65" shape-rendering="crispEdges"/>
<rect x="1130" y="1" width="361" height="283" rx="11" stroke="white" stroke-width="2" style="mix-blend-mode:overlay" shape-rendering="crispEdges"/>
</g>
<path d="M1209.02 142V94L1214.28 99.25H1198.53V89.5H1221.18V142H1209.02ZM1252.8 142.9C1248.5 142.9 1244.65 141.85 1241.25 139.75C1237.85 137.6 1235.17 134.5 1233.22 130.45C1231.27 126.4 1230.3 121.5 1230.3 115.75C1230.3 110 1231.27 105.1 1233.22 101.05C1235.17 97 1237.85 93.925 1241.25 91.825C1244.65 89.675 1248.5 88.6 1252.8 88.6C1257.15 88.6 1261 89.675 1264.35 91.825C1267.75 93.925 1270.42 97 1272.37 101.05C1274.32 105.1 1275.3 110 1275.3 115.75C1275.3 121.5 1274.32 126.4 1272.37 130.45C1270.42 134.5 1267.75 137.6 1264.35 139.75C1261 141.85 1257.15 142.9 1252.8 142.9ZM1252.8 132.625C1254.85 132.625 1256.62 132.05 1258.12 130.9C1259.67 129.75 1260.87 127.925 1261.72 125.425C1262.62 122.925 1263.07 119.7 1263.07 115.75C1263.07 111.8 1262.62 108.575 1261.72 106.075C1260.87 103.575 1259.67 101.75 1258.12 100.6C1256.62 99.45 1254.85 98.875 1252.8 98.875C1250.8 98.875 1249.02 99.45 1247.47 100.6C1245.97 101.75 1244.77 103.575 1243.87 106.075C1243.02 108.575 1242.6 111.8 1242.6 115.75C1242.6 119.7 1243.02 122.925 1243.87 125.425C1244.77 127.925 1245.97 129.75 1247.47 130.9C1249.02 132.05 1250.8 132.625 1252.8 132.625ZM1303.7 142.9C1299.4 142.9 1295.55 141.85 1292.15 139.75C1288.75 137.6 1286.07 134.5 1284.12 130.45C1282.17 126.4 1281.2 121.5 1281.2 115.75C1281.2 110 1282.17 105.1 1284.12 101.05C1286.07 97 1288.75 93.925 1292.15 91.825C1295.55 89.675 1299.4 88.6 1303.7 88.6C1308.05 88.6 1311.9 89.675 1315.25 91.825C1318.65 93.925 1321.32 97 1323.27 101.05C1325.22 105.1 1326.2 110 1326.2 115.75C1326.2 121.5 1325.22 126.4 1323.27 130.45C1321.32 134.5 1318.65 137.6 1315.25 139.75C1311.9 141.85 1308.05 142.9 1303.7 142.9ZM1303.7 132.625C1305.75 132.625 1307.52 132.05 1309.02 130.9C1310.57 129.75 1311.77 127.925 1312.62 125.425C1313.52 122.925 1313.97 119.7 1313.97 115.75C1313.97 111.8 1313.52 108.575 1312.62 106.075C1311.77 103.575 1310.57 101.75 1309.02 100.6C1307.52 99.45 1305.75 98.875 1303.7 98.875C1301.7 98.875 1299.92 99.45 1298.37 100.6C1296.87 101.75 1295.67 103.575 1294.77 106.075C1293.92 108.575 1293.5 111.8 1293.5 115.75C1293.5 119.7 1293.92 122.925 1294.77 125.425C1295.67 127.925 1296.87 129.75 1298.37 130.9C1299.92 132.05 1301.7 132.625 1303.7 132.625ZM1354.6 142.9C1350.3 142.9 1346.45 141.85 1343.05 139.75C1339.65 137.6 1336.98 134.5 1335.03 130.45C1333.08 126.4 1332.1 121.5 1332.1 115.75C1332.1 110 1333.08 105.1 1335.03 101.05C1336.98 97 1339.65 93.925 1343.05 91.825C1346.45 89.675 1350.3 88.6 1354.6 88.6C1358.95 88.6 1362.8 89.675 1366.15 91.825C1369.55 93.925 1372.23 97 1374.18 101.05C1376.13 105.1 1377.1 110 1377.1 115.75C1377.1 121.5 1376.13 126.4 1374.18 130.45C1372.23 134.5 1369.55 137.6 1366.15 139.75C1362.8 141.85 1358.95 142.9 1354.6 142.9ZM1354.6 132.625C1356.65 132.625 1358.43 132.05 1359.93 130.9C1361.48 129.75 1362.68 127.925 1363.53 125.425C1364.43 122.925 1364.88 119.7 1364.88 115.75C1364.88 111.8 1364.43 108.575 1363.53 106.075C1362.68 103.575 1361.48 101.75 1359.93 100.6C1358.43 99.45 1356.65 98.875 1354.6 98.875C1352.6 98.875 1350.83 99.45 1349.28 100.6C1347.78 101.75 1346.58 103.575 1345.68 106.075C1344.83 108.575 1344.4 111.8 1344.4 115.75C1344.4 119.7 1344.83 122.925 1345.68 125.425C1346.58 127.925 1347.78 129.75 1349.28 130.9C1350.83 132.05 1352.6 132.625 1354.6 132.625ZM1397.92 133.075V98.425H1407.6V133.075H1397.92ZM1384.95 120.325V111.175H1420.65V120.325H1384.95Z" fill="#00C4DE"/>
<path d="M1202.27 181.8H1208.1V207H1202.27V181.8ZM1190.82 207H1184.99V181.8H1190.82V207ZM1202.7 196.668H1190.39V191.736H1202.7V196.668ZM1225.55 207V203.22L1225.19 202.392V195.624C1225.19 194.424 1224.81 193.488 1224.07 192.816C1223.35 192.144 1222.23 191.808 1220.72 191.808C1219.69 191.808 1218.67 191.976 1217.66 192.312C1216.68 192.624 1215.84 193.056 1215.14 193.608L1213.13 189.684C1214.18 188.94 1215.45 188.364 1216.94 187.956C1218.43 187.548 1219.94 187.344 1221.48 187.344C1224.43 187.344 1226.72 188.04 1228.35 189.432C1229.99 190.824 1230.8 192.996 1230.8 195.948V207H1225.55ZM1219.64 207.288C1218.13 207.288 1216.83 207.036 1215.75 206.532C1214.67 206.004 1213.85 205.296 1213.27 204.408C1212.69 203.52 1212.41 202.524 1212.41 201.42C1212.41 200.268 1212.68 199.26 1213.23 198.396C1213.81 197.532 1214.71 196.86 1215.93 196.38C1217.16 195.876 1218.75 195.624 1220.72 195.624H1225.87V198.9H1221.33C1220.01 198.9 1219.1 199.116 1218.6 199.548C1218.12 199.98 1217.88 200.52 1217.88 201.168C1217.88 201.888 1218.15 202.464 1218.71 202.896C1219.28 203.304 1220.06 203.508 1221.05 203.508C1221.98 203.508 1222.82 203.292 1223.57 202.86C1224.31 202.404 1224.85 201.744 1225.19 200.88L1226.05 203.472C1225.64 204.72 1224.9 205.668 1223.82 206.316C1222.74 206.964 1221.35 207.288 1219.64 207.288ZM1247.33 207.288C1245.7 207.288 1244.27 206.928 1243.05 206.208C1241.82 205.488 1240.86 204.396 1240.17 202.932C1239.5 201.444 1239.16 199.572 1239.16 197.316C1239.16 195.036 1239.48 193.164 1240.13 191.7C1240.78 190.236 1241.72 189.144 1242.94 188.424C1244.16 187.704 1245.63 187.344 1247.33 187.344C1249.16 187.344 1250.79 187.764 1252.23 188.604C1253.69 189.42 1254.84 190.572 1255.68 192.06C1256.55 193.548 1256.98 195.3 1256.98 197.316C1256.98 199.356 1256.55 201.12 1255.68 202.608C1254.84 204.096 1253.69 205.248 1252.23 206.064C1250.79 206.88 1249.16 207.288 1247.33 207.288ZM1235.88 213.984V187.632H1241.25V191.592L1241.14 197.352L1241.5 203.076V213.984H1235.88ZM1246.36 202.68C1247.3 202.68 1248.12 202.464 1248.84 202.032C1249.59 201.6 1250.18 200.988 1250.61 200.196C1251.06 199.38 1251.29 198.42 1251.29 197.316C1251.29 196.188 1251.06 195.228 1250.61 194.436C1250.18 193.644 1249.59 193.032 1248.84 192.6C1248.12 192.168 1247.3 191.952 1246.36 191.952C1245.42 191.952 1244.58 192.168 1243.84 192.6C1243.1 193.032 1242.51 193.644 1242.08 194.436C1241.64 195.228 1241.43 196.188 1241.43 197.316C1241.43 198.42 1241.64 199.38 1242.08 200.196C1242.51 200.988 1243.1 201.6 1243.84 202.032C1244.58 202.464 1245.42 202.68 1246.36 202.68ZM1272.19 207.288C1270.56 207.288 1269.13 206.928 1267.9 206.208C1266.68 205.488 1265.72 204.396 1265.02 202.932C1264.35 201.444 1264.02 199.572 1264.02 197.316C1264.02 195.036 1264.34 193.164 1264.99 191.7C1265.64 190.236 1266.57 189.144 1267.8 188.424C1269.02 187.704 1270.48 187.344 1272.19 187.344C1274.01 187.344 1275.64 187.764 1277.08 188.604C1278.55 189.42 1279.7 190.572 1280.54 192.06C1281.4 193.548 1281.84 195.3 1281.84 197.316C1281.84 199.356 1281.4 201.12 1280.54 202.608C1279.7 204.096 1278.55 205.248 1277.08 206.064C1275.64 206.88 1274.01 207.288 1272.19 207.288ZM1260.74 213.984V187.632H1266.1V191.592L1266 197.352L1266.36 203.076V213.984H1260.74ZM1271.22 202.68C1272.15 202.68 1272.98 202.464 1273.7 202.032C1274.44 201.6 1275.03 200.988 1275.46 200.196C1275.92 199.38 1276.15 198.42 1276.15 197.316C1276.15 196.188 1275.92 195.228 1275.46 194.436C1275.03 193.644 1274.44 193.032 1273.7 192.6C1272.98 192.168 1272.15 191.952 1271.22 191.952C1270.28 191.952 1269.44 192.168 1268.7 192.6C1267.95 193.032 1267.36 193.644 1266.93 194.436C1266.5 195.228 1266.28 196.188 1266.28 197.316C1266.28 198.42 1266.5 199.38 1266.93 200.196C1267.36 200.988 1267.95 201.6 1268.7 202.032C1269.44 202.464 1270.28 202.68 1271.22 202.68ZM1287.52 214.272C1286.51 214.272 1285.51 214.116 1284.53 213.804C1283.54 213.492 1282.74 213.06 1282.12 212.508L1284.17 208.512C1284.6 208.896 1285.09 209.196 1285.64 209.412C1286.22 209.628 1286.78 209.736 1287.34 209.736C1288.13 209.736 1288.75 209.544 1289.21 209.16C1289.69 208.8 1290.12 208.188 1290.5 207.324L1291.51 204.948L1291.94 204.336L1298.89 187.632H1304.29L1295.54 208.188C1294.92 209.748 1294.2 210.972 1293.38 211.86C1292.59 212.748 1291.7 213.372 1290.72 213.732C1289.76 214.092 1288.69 214.272 1287.52 214.272ZM1290.83 207.756L1282.19 187.632H1287.98L1294.68 203.832L1290.83 207.756ZM1317.18 207V181.8H1328.08C1330.34 181.8 1332.28 182.172 1333.92 182.916C1335.55 183.636 1336.81 184.68 1337.7 186.048C1338.58 187.416 1339.03 189.048 1339.03 190.944C1339.03 192.816 1338.58 194.436 1337.7 195.804C1336.81 197.172 1335.55 198.228 1333.92 198.972C1332.28 199.692 1330.34 200.052 1328.08 200.052H1320.42L1323.01 197.424V207H1317.18ZM1323.01 198.072L1320.42 195.3H1327.76C1329.56 195.3 1330.9 194.916 1331.79 194.148C1332.68 193.38 1333.12 192.312 1333.12 190.944C1333.12 189.552 1332.68 188.472 1331.79 187.704C1330.9 186.936 1329.56 186.552 1327.76 186.552H1320.42L1323.01 183.78V198.072ZM1354.5 207V203.22L1354.14 202.392V195.624C1354.14 194.424 1353.77 193.488 1353.02 192.816C1352.3 192.144 1351.19 191.808 1349.68 191.808C1348.64 191.808 1347.62 191.976 1346.62 192.312C1345.63 192.624 1344.79 193.056 1344.1 193.608L1342.08 189.684C1343.14 188.94 1344.41 188.364 1345.9 187.956C1347.38 187.548 1348.9 187.344 1350.43 187.344C1353.38 187.344 1355.68 188.04 1357.31 189.432C1358.94 190.824 1359.76 192.996 1359.76 195.948V207H1354.5ZM1348.6 207.288C1347.08 207.288 1345.79 207.036 1344.71 206.532C1343.63 206.004 1342.8 205.296 1342.22 204.408C1341.65 203.52 1341.36 202.524 1341.36 201.42C1341.36 200.268 1341.64 199.26 1342.19 198.396C1342.76 197.532 1343.66 196.86 1344.89 196.38C1346.11 195.876 1347.71 195.624 1349.68 195.624H1354.82V198.9H1350.29C1348.97 198.9 1348.06 199.116 1347.55 199.548C1347.07 199.98 1346.83 200.52 1346.83 201.168C1346.83 201.888 1347.11 202.464 1347.66 202.896C1348.24 203.304 1349.02 203.508 1350 203.508C1350.94 203.508 1351.78 203.292 1352.52 202.86C1353.26 202.404 1353.8 201.744 1354.14 200.88L1355 203.472C1354.6 204.72 1353.85 205.668 1352.77 206.316C1351.69 206.964 1350.3 207.288 1348.6 207.288ZM1372.76 207.288C1370.48 207.288 1368.7 206.712 1367.43 205.56C1366.16 204.384 1365.52 202.644 1365.52 200.34V183.348H1371.14V200.268C1371.14 201.084 1371.35 201.72 1371.79 202.176C1372.22 202.608 1372.81 202.824 1373.55 202.824C1374.44 202.824 1375.19 202.584 1375.82 202.104L1377.33 206.064C1376.75 206.472 1376.06 206.784 1375.24 207C1374.45 207.192 1373.62 207.288 1372.76 207.288ZM1362.53 192.384V188.064H1375.96V192.384H1362.53ZM1380.48 207V187.632H1386.1V207H1380.48ZM1383.29 184.932C1382.26 184.932 1381.42 184.632 1380.77 184.032C1380.12 183.432 1379.8 182.688 1379.8 181.8C1379.8 180.912 1380.12 180.168 1380.77 179.568C1381.42 178.968 1382.26 178.668 1383.29 178.668C1384.32 178.668 1385.16 178.956 1385.81 179.532C1386.46 180.084 1386.78 180.804 1386.78 181.692C1386.78 182.628 1386.46 183.408 1385.81 184.032C1385.19 184.632 1384.35 184.932 1383.29 184.932ZM1400.92 207.288C1398.71 207.288 1396.77 206.856 1395.09 205.992C1393.43 205.128 1392.15 203.952 1391.24 202.464C1390.33 200.952 1389.87 199.236 1389.87 197.316C1389.87 195.372 1390.31 193.656 1391.2 192.168C1392.11 190.656 1393.35 189.48 1394.91 188.64C1396.47 187.776 1398.23 187.344 1400.2 187.344C1402.1 187.344 1403.8 187.752 1405.31 188.568C1406.85 189.36 1408.06 190.512 1408.95 192.024C1409.84 193.512 1410.28 195.3 1410.28 197.388C1410.28 197.604 1410.27 197.856 1410.25 198.144C1410.22 198.408 1410.2 198.66 1410.17 198.9H1394.44V195.624H1407.22L1405.06 196.596C1405.06 195.588 1404.86 194.712 1404.45 193.968C1404.04 193.224 1403.48 192.648 1402.76 192.24C1402.04 191.808 1401.2 191.592 1400.24 191.592C1399.28 191.592 1398.43 191.808 1397.68 192.24C1396.96 192.648 1396.4 193.236 1395.99 194.004C1395.58 194.748 1395.38 195.636 1395.38 196.668V197.532C1395.38 198.588 1395.61 199.524 1396.06 200.34C1396.54 201.132 1397.2 201.744 1398.04 202.176C1398.91 202.584 1399.91 202.788 1401.07 202.788C1402.1 202.788 1403 202.632 1403.77 202.32C1404.56 202.008 1405.28 201.54 1405.93 200.916L1408.91 204.156C1408.03 205.164 1406.91 205.944 1405.57 206.496C1404.22 207.024 1402.67 207.288 1400.92 207.288ZM1425.79 187.344C1427.33 187.344 1428.7 187.656 1429.9 188.28C1431.12 188.88 1432.08 189.816 1432.78 191.088C1433.47 192.336 1433.82 193.944 1433.82 195.912V207H1428.21V196.776C1428.21 195.216 1427.86 194.064 1427.16 193.32C1426.49 192.576 1425.53 192.204 1424.28 192.204C1423.39 192.204 1422.59 192.396 1421.87 192.78C1421.17 193.14 1420.62 193.704 1420.21 194.472C1419.83 195.24 1419.64 196.224 1419.64 197.424V207H1414.02V187.632H1419.39V192.996L1418.38 191.376C1419.07 190.08 1420.07 189.084 1421.37 188.388C1422.66 187.692 1424.14 187.344 1425.79 187.344ZM1446.83 207.288C1444.55 207.288 1442.78 206.712 1441.5 205.56C1440.23 204.384 1439.6 202.644 1439.6 200.34V183.348H1445.21V200.268C1445.21 201.084 1445.43 201.72 1445.86 202.176C1446.29 202.608 1446.88 202.824 1447.62 202.824C1448.51 202.824 1449.27 202.584 1449.89 202.104L1451.4 206.064C1450.83 206.472 1450.13 206.784 1449.32 207C1448.52 207.192 1447.7 207.288 1446.83 207.288ZM1436.61 192.384V188.064H1450.04V192.384H1436.61ZM1461.07 207.288C1459.42 207.288 1457.82 207.096 1456.28 206.712C1454.77 206.304 1453.57 205.8 1452.68 205.2L1454.56 201.168C1455.44 201.72 1456.49 202.176 1457.69 202.536C1458.91 202.872 1460.11 203.04 1461.29 203.04C1462.58 203.04 1463.5 202.884 1464.02 202.572C1464.58 202.26 1464.85 201.828 1464.85 201.276C1464.85 200.82 1464.64 200.484 1464.2 200.268C1463.8 200.028 1463.24 199.848 1462.55 199.728C1461.85 199.608 1461.08 199.488 1460.24 199.368C1459.43 199.248 1458.6 199.092 1457.76 198.9C1456.92 198.684 1456.15 198.372 1455.46 197.964C1454.76 197.556 1454.2 197.004 1453.76 196.308C1453.36 195.612 1453.15 194.712 1453.15 193.608C1453.15 192.384 1453.5 191.304 1454.2 190.368C1454.92 189.432 1455.95 188.7 1457.29 188.172C1458.64 187.62 1460.24 187.344 1462.12 187.344C1463.44 187.344 1464.78 187.488 1466.15 187.776C1467.52 188.064 1468.66 188.484 1469.57 189.036L1467.7 193.032C1466.76 192.48 1465.81 192.108 1464.85 191.916C1463.92 191.7 1463 191.592 1462.12 191.592C1460.87 191.592 1459.96 191.76 1459.38 192.096C1458.8 192.432 1458.52 192.864 1458.52 193.392C1458.52 193.872 1458.72 194.232 1459.13 194.472C1459.56 194.712 1460.12 194.904 1460.82 195.048C1461.52 195.192 1462.27 195.324 1463.09 195.444C1463.93 195.54 1464.77 195.696 1465.61 195.912C1466.45 196.128 1467.2 196.44 1467.88 196.848C1468.57 197.232 1469.14 197.772 1469.57 198.468C1470 199.14 1470.22 200.028 1470.22 201.132C1470.22 202.332 1469.86 203.4 1469.14 204.336C1468.42 205.248 1467.37 205.968 1466 206.496C1464.66 207.024 1463.02 207.288 1461.07 207.288Z" fill="black" fill-opacity="0.62"/>
<rect x="109" y="381" width="1504" height="280" rx="16" fill="white"/>
<path d="M502.384 512L495.122 485.818H499.277L504.378 506.094H504.621L509.926 485.818H514.043L519.348 506.107H519.591L524.679 485.818H528.847L521.573 512H517.597L512.087 492.389H511.882L506.372 512H502.384ZM538.671 512.396C536.737 512.396 535.07 511.983 533.673 511.156C532.284 510.321 531.21 509.149 530.451 507.641C529.701 506.124 529.326 504.347 529.326 502.31C529.326 500.298 529.701 498.526 530.451 496.991C531.21 495.457 532.267 494.26 533.622 493.399C534.985 492.538 536.579 492.108 538.403 492.108C539.511 492.108 540.585 492.291 541.624 492.658C542.664 493.024 543.597 493.599 544.424 494.384C545.251 495.168 545.903 496.186 546.38 497.439C546.857 498.683 547.096 500.196 547.096 501.977V503.332H531.487V500.469H543.35C543.35 499.463 543.146 498.572 542.737 497.797C542.328 497.013 541.752 496.395 541.011 495.943C540.278 495.491 539.417 495.266 538.428 495.266C537.355 495.266 536.417 495.53 535.616 496.058C534.823 496.578 534.21 497.26 533.775 498.104C533.349 498.939 533.136 499.847 533.136 500.827V503.064C533.136 504.376 533.366 505.493 533.826 506.413C534.295 507.334 534.947 508.037 535.782 508.523C536.617 509 537.593 509.239 538.71 509.239C539.434 509.239 540.095 509.136 540.691 508.932C541.288 508.719 541.803 508.403 542.238 507.986C542.673 507.568 543.005 507.053 543.235 506.439L546.853 507.091C546.563 508.156 546.044 509.089 545.294 509.891C544.552 510.683 543.619 511.301 542.494 511.744C541.377 512.179 540.103 512.396 538.671 512.396ZM560.865 519.364V492.364H564.597V495.547H564.917C565.139 495.138 565.458 494.665 565.876 494.128C566.294 493.591 566.873 493.122 567.615 492.722C568.356 492.312 569.336 492.108 570.555 492.108C572.14 492.108 573.555 492.509 574.799 493.31C576.044 494.111 577.019 495.266 577.727 496.774C578.443 498.283 578.801 500.098 578.801 502.22C578.801 504.342 578.447 506.162 577.74 507.679C577.032 509.187 576.061 510.351 574.825 511.169C573.589 511.979 572.178 512.384 570.593 512.384C569.4 512.384 568.424 512.183 567.666 511.783C566.916 511.382 566.328 510.913 565.901 510.376C565.475 509.839 565.147 509.362 564.917 508.945H564.687V519.364H560.865ZM564.61 502.182C564.61 503.562 564.811 504.773 565.211 505.812C565.612 506.852 566.191 507.666 566.95 508.254C567.708 508.834 568.637 509.124 569.737 509.124C570.879 509.124 571.833 508.821 572.6 508.216C573.367 507.602 573.947 506.771 574.339 505.723C574.74 504.675 574.94 503.494 574.94 502.182C574.94 500.886 574.744 499.723 574.352 498.692C573.968 497.661 573.389 496.847 572.613 496.25C571.846 495.653 570.887 495.355 569.737 495.355C568.629 495.355 567.691 495.641 566.924 496.212C566.166 496.783 565.59 497.58 565.198 498.602C564.806 499.625 564.61 500.818 564.61 502.182ZM583.083 512V492.364H586.778V495.483H586.982C587.34 494.426 587.971 493.595 588.874 492.99C589.786 492.376 590.818 492.07 591.968 492.07C592.207 492.07 592.488 492.078 592.812 492.095C593.144 492.112 593.404 492.134 593.592 492.159V495.815C593.438 495.773 593.166 495.726 592.774 495.675C592.382 495.615 591.99 495.585 591.597 495.585C590.694 495.585 589.889 495.777 589.181 496.161C588.482 496.536 587.928 497.06 587.519 497.733C587.11 498.398 586.906 499.156 586.906 500.009V512H583.083ZM604.468 512.396C602.627 512.396 601.02 511.974 599.648 511.131C598.276 510.287 597.211 509.107 596.452 507.589C595.694 506.072 595.314 504.3 595.314 502.271C595.314 500.234 595.694 498.453 596.452 496.928C597.211 495.402 598.276 494.217 599.648 493.374C601.02 492.53 602.627 492.108 604.468 492.108C606.309 492.108 607.915 492.53 609.287 493.374C610.66 494.217 611.725 495.402 612.483 496.928C613.242 498.453 613.621 500.234 613.621 502.271C613.621 504.3 613.242 506.072 612.483 507.589C611.725 509.107 610.66 510.287 609.287 511.131C607.915 511.974 606.309 512.396 604.468 512.396ZM604.481 509.188C605.674 509.188 606.662 508.872 607.447 508.241C608.231 507.611 608.81 506.771 609.185 505.723C609.569 504.675 609.76 503.52 609.76 502.259C609.76 501.006 609.569 499.855 609.185 498.807C608.81 497.75 608.231 496.902 607.447 496.263C606.662 495.624 605.674 495.304 604.481 495.304C603.279 495.304 602.282 495.624 601.489 496.263C600.705 496.902 600.121 497.75 599.738 498.807C599.363 499.855 599.175 501.006 599.175 502.259C599.175 503.52 599.363 504.675 599.738 505.723C600.121 506.771 600.705 507.611 601.489 508.241C602.282 508.872 603.279 509.188 604.481 509.188ZM617.888 512V492.364H621.557V495.56H621.8C622.209 494.477 622.878 493.634 623.807 493.028C624.736 492.415 625.848 492.108 627.144 492.108C628.456 492.108 629.556 492.415 630.442 493.028C631.337 493.642 631.997 494.486 632.423 495.56H632.628C633.097 494.511 633.843 493.676 634.865 493.054C635.888 492.423 637.107 492.108 638.521 492.108C640.303 492.108 641.756 492.666 642.881 493.783C644.014 494.899 644.581 496.582 644.581 498.832V512H640.759V499.19C640.759 497.861 640.396 496.898 639.672 496.301C638.948 495.705 638.083 495.406 637.077 495.406C635.833 495.406 634.865 495.79 634.175 496.557C633.485 497.315 633.139 498.291 633.139 499.484V512H629.33V498.947C629.33 497.882 628.997 497.026 628.333 496.378C627.668 495.73 626.803 495.406 625.737 495.406C625.013 495.406 624.344 495.598 623.73 495.982C623.125 496.357 622.635 496.881 622.26 497.554C621.894 498.227 621.71 499.007 621.71 499.893V512H617.888ZM649.704 512V492.364H653.527V512H649.704ZM651.635 489.334C650.97 489.334 650.399 489.112 649.922 488.669C649.453 488.217 649.219 487.68 649.219 487.058C649.219 486.428 649.453 485.891 649.922 485.447C650.399 484.996 650.97 484.77 651.635 484.77C652.3 484.77 652.866 484.996 653.335 485.447C653.812 485.891 654.051 486.428 654.051 487.058C654.051 487.68 653.812 488.217 653.335 488.669C652.866 489.112 652.3 489.334 651.635 489.334ZM673.384 497.158L669.919 497.771C669.774 497.328 669.544 496.906 669.229 496.506C668.922 496.105 668.504 495.777 667.976 495.521C667.448 495.266 666.787 495.138 665.994 495.138C664.912 495.138 664.009 495.381 663.284 495.866C662.56 496.344 662.198 496.962 662.198 497.72C662.198 498.376 662.441 498.905 662.926 499.305C663.412 499.706 664.196 500.034 665.279 500.29L668.398 501.006C670.205 501.423 671.551 502.067 672.438 502.936C673.324 503.805 673.767 504.935 673.767 506.324C673.767 507.5 673.426 508.548 672.744 509.469C672.071 510.381 671.129 511.097 669.919 511.616C668.718 512.136 667.324 512.396 665.739 512.396C663.54 512.396 661.746 511.928 660.357 510.99C658.968 510.044 658.115 508.702 657.8 506.963L661.494 506.401C661.725 507.364 662.198 508.092 662.914 508.587C663.629 509.072 664.563 509.315 665.713 509.315C666.966 509.315 667.968 509.055 668.718 508.536C669.468 508.007 669.843 507.364 669.843 506.605C669.843 505.991 669.612 505.476 669.152 505.058C668.7 504.641 668.006 504.325 667.068 504.112L663.744 503.384C661.912 502.966 660.557 502.301 659.679 501.389C658.81 500.477 658.375 499.322 658.375 497.925C658.375 496.766 658.699 495.751 659.347 494.882C659.994 494.013 660.889 493.335 662.031 492.849C663.173 492.355 664.482 492.108 665.956 492.108C668.078 492.108 669.749 492.568 670.968 493.489C672.186 494.401 672.992 495.624 673.384 497.158ZM686.433 512.396C684.498 512.396 682.832 511.983 681.434 511.156C680.045 510.321 678.971 509.149 678.213 507.641C677.463 506.124 677.088 504.347 677.088 502.31C677.088 500.298 677.463 498.526 678.213 496.991C678.971 495.457 680.028 494.26 681.383 493.399C682.747 492.538 684.341 492.108 686.165 492.108C687.273 492.108 688.346 492.291 689.386 492.658C690.426 493.024 691.359 493.599 692.186 494.384C693.013 495.168 693.665 496.186 694.142 497.439C694.619 498.683 694.858 500.196 694.858 501.977V503.332H679.248V500.469H691.112C691.112 499.463 690.907 498.572 690.498 497.797C690.089 497.013 689.514 496.395 688.773 495.943C688.04 495.491 687.179 495.266 686.19 495.266C685.116 495.266 684.179 495.53 683.378 496.058C682.585 496.578 681.971 497.26 681.537 498.104C681.111 498.939 680.898 499.847 680.898 500.827V503.064C680.898 504.376 681.128 505.493 681.588 506.413C682.057 507.334 682.709 508.037 683.544 508.523C684.379 509 685.355 509.239 686.471 509.239C687.196 509.239 687.856 509.136 688.453 508.932C689.05 508.719 689.565 508.403 690 507.986C690.434 507.568 690.767 507.053 690.997 506.439L694.615 507.091C694.325 508.156 693.805 509.089 693.055 509.891C692.314 510.683 691.381 511.301 690.256 511.744C689.139 512.179 687.865 512.396 686.433 512.396ZM717.792 492.364V495.432H707.067V492.364H717.792ZM709.943 487.659H713.765V506.234C713.765 506.976 713.876 507.534 714.098 507.909C714.319 508.276 714.605 508.527 714.954 508.663C715.312 508.791 715.7 508.855 716.118 508.855C716.425 508.855 716.693 508.834 716.923 508.791C717.153 508.749 717.332 508.714 717.46 508.689L718.15 511.847C717.929 511.932 717.613 512.017 717.204 512.102C716.795 512.196 716.284 512.247 715.67 512.256C714.665 512.273 713.727 512.094 712.858 511.719C711.988 511.344 711.285 510.764 710.748 509.98C710.211 509.196 709.943 508.212 709.943 507.027V487.659ZM730.081 512.396C728.24 512.396 726.634 511.974 725.262 511.131C723.889 510.287 722.824 509.107 722.066 507.589C721.307 506.072 720.928 504.3 720.928 502.271C720.928 500.234 721.307 498.453 722.066 496.928C722.824 495.402 723.889 494.217 725.262 493.374C726.634 492.53 728.24 492.108 730.081 492.108C731.922 492.108 733.529 492.53 734.901 493.374C736.273 494.217 737.338 495.402 738.097 496.928C738.855 498.453 739.235 500.234 739.235 502.271C739.235 504.3 738.855 506.072 738.097 507.589C737.338 509.107 736.273 510.287 734.901 511.131C733.529 511.974 731.922 512.396 730.081 512.396ZM730.094 509.188C731.287 509.188 732.276 508.872 733.06 508.241C733.844 507.611 734.423 506.771 734.798 505.723C735.182 504.675 735.374 503.52 735.374 502.259C735.374 501.006 735.182 499.855 734.798 498.807C734.423 497.75 733.844 496.902 733.06 496.263C732.276 495.624 731.287 495.304 730.094 495.304C728.892 495.304 727.895 495.624 727.102 496.263C726.318 496.902 725.735 497.75 725.351 498.807C724.976 499.855 724.789 501.006 724.789 502.259C724.789 503.52 724.976 504.675 725.351 505.723C725.735 506.771 726.318 507.611 727.102 508.241C727.895 508.872 728.892 509.188 730.094 509.188ZM760.379 512.384C758.794 512.384 757.379 511.979 756.135 511.169C754.899 510.351 753.928 509.187 753.22 507.679C752.521 506.162 752.172 504.342 752.172 502.22C752.172 500.098 752.526 498.283 753.233 496.774C753.949 495.266 754.929 494.111 756.173 493.31C757.418 492.509 758.828 492.108 760.405 492.108C761.624 492.108 762.604 492.312 763.345 492.722C764.095 493.122 764.675 493.591 765.084 494.128C765.502 494.665 765.825 495.138 766.056 495.547H766.286V485.818H770.108V512H766.375V508.945H766.056C765.825 509.362 765.493 509.839 765.058 510.376C764.632 510.913 764.044 511.382 763.294 511.783C762.544 512.183 761.573 512.384 760.379 512.384ZM761.223 509.124C762.323 509.124 763.252 508.834 764.01 508.254C764.777 507.666 765.357 506.852 765.749 505.812C766.149 504.773 766.35 503.562 766.35 502.182C766.35 500.818 766.154 499.625 765.762 498.602C765.369 497.58 764.794 496.783 764.036 496.212C763.277 495.641 762.34 495.355 761.223 495.355C760.073 495.355 759.114 495.653 758.347 496.25C757.58 496.847 757 497.661 756.608 498.692C756.225 499.723 756.033 500.886 756.033 502.182C756.033 503.494 756.229 504.675 756.621 505.723C757.013 506.771 757.593 507.602 758.36 508.216C759.135 508.821 760.09 509.124 761.223 509.124ZM784.027 512.396C782.092 512.396 780.426 511.983 779.028 511.156C777.639 510.321 776.565 509.149 775.807 507.641C775.057 506.124 774.682 504.347 774.682 502.31C774.682 500.298 775.057 498.526 775.807 496.991C776.565 495.457 777.622 494.26 778.977 493.399C780.341 492.538 781.934 492.108 783.758 492.108C784.866 492.108 785.94 492.291 786.98 492.658C788.02 493.024 788.953 493.599 789.78 494.384C790.606 495.168 791.258 496.186 791.736 497.439C792.213 498.683 792.452 500.196 792.452 501.977V503.332H776.842V500.469H788.706C788.706 499.463 788.501 498.572 788.092 497.797C787.683 497.013 787.108 496.395 786.366 495.943C785.633 495.491 784.773 495.266 783.784 495.266C782.71 495.266 781.773 495.53 780.971 496.058C780.179 496.578 779.565 497.26 779.131 498.104C778.704 498.939 778.491 499.847 778.491 500.827V503.064C778.491 504.376 778.721 505.493 779.182 506.413C779.65 507.334 780.302 508.037 781.138 508.523C781.973 509 782.949 509.239 784.065 509.239C784.79 509.239 785.45 509.136 786.047 508.932C786.643 508.719 787.159 508.403 787.594 507.986C788.028 507.568 788.361 507.053 788.591 506.439L792.209 507.091C791.919 508.156 791.399 509.089 790.649 509.891C789.907 510.683 788.974 511.301 787.849 511.744C786.733 512.179 785.459 512.396 784.027 512.396ZM800.515 485.818V512H796.693V485.818H800.515ZM805.657 512V492.364H809.48V512H805.657ZM807.588 489.334C806.923 489.334 806.352 489.112 805.875 488.669C805.406 488.217 805.172 487.68 805.172 487.058C805.172 486.428 805.406 485.891 805.875 485.447C806.352 484.996 806.923 484.77 807.588 484.77C808.253 484.77 808.819 484.996 809.288 485.447C809.765 485.891 810.004 486.428 810.004 487.058C810.004 487.68 809.765 488.217 809.288 488.669C808.819 489.112 808.253 489.334 807.588 489.334ZM831.421 492.364L824.3 512H820.209L813.075 492.364H817.179L822.152 507.474H822.357L827.317 492.364H831.421ZM842.808 512.396C840.873 512.396 839.207 511.983 837.809 511.156C836.42 510.321 835.346 509.149 834.588 507.641C833.838 506.124 833.463 504.347 833.463 502.31C833.463 500.298 833.838 498.526 834.588 496.991C835.346 495.457 836.403 494.26 837.758 493.399C839.122 492.538 840.716 492.108 842.54 492.108C843.648 492.108 844.721 492.291 845.761 492.658C846.801 493.024 847.734 493.599 848.561 494.384C849.388 495.168 850.04 496.186 850.517 497.439C850.994 498.683 851.233 500.196 851.233 501.977V503.332H835.623V500.469H847.487C847.487 499.463 847.282 498.572 846.873 497.797C846.464 497.013 845.889 496.395 845.148 495.943C844.415 495.491 843.554 495.266 842.565 495.266C841.491 495.266 840.554 495.53 839.753 496.058C838.96 496.578 838.346 497.26 837.912 498.104C837.486 498.939 837.273 499.847 837.273 500.827V503.064C837.273 504.376 837.503 505.493 837.963 506.413C838.432 507.334 839.084 508.037 839.919 508.523C840.754 509 841.73 509.239 842.846 509.239C843.571 509.239 844.231 509.136 844.828 508.932C845.425 508.719 845.94 508.403 846.375 507.986C846.809 507.568 847.142 507.053 847.372 506.439L850.99 507.091C850.7 508.156 850.18 509.089 849.43 509.891C848.689 510.683 847.756 511.301 846.631 511.744C845.514 512.179 844.24 512.396 842.808 512.396ZM855.474 512V492.364H859.169V495.483H859.373C859.731 494.426 860.362 493.595 861.265 492.99C862.177 492.376 863.208 492.07 864.359 492.07C864.597 492.07 864.879 492.078 865.203 492.095C865.535 492.112 865.795 492.134 865.982 492.159V495.815C865.829 495.773 865.556 495.726 865.164 495.675C864.772 495.615 864.38 495.585 863.988 495.585C863.085 495.585 862.279 495.777 861.572 496.161C860.873 496.536 860.319 497.06 859.91 497.733C859.501 498.398 859.296 499.156 859.296 500.009V512H855.474ZM887.984 492.364V495.432H877.258V492.364H887.984ZM880.134 487.659H883.957V506.234C883.957 506.976 884.068 507.534 884.289 507.909C884.511 508.276 884.796 508.527 885.146 508.663C885.504 508.791 885.892 508.855 886.309 508.855C886.616 508.855 886.884 508.834 887.115 508.791C887.345 508.749 887.524 508.714 887.651 508.689L888.342 511.847C888.12 511.932 887.805 512.017 887.396 512.102C886.987 512.196 886.475 512.247 885.862 512.256C884.856 512.273 883.919 512.094 883.049 511.719C882.18 511.344 881.477 510.764 880.94 509.98C880.403 509.196 880.134 508.212 880.134 507.027V487.659ZM896.456 500.341V512H892.634V485.818H896.405V495.56H896.648C897.108 494.503 897.812 493.663 898.758 493.041C899.704 492.419 900.939 492.108 902.465 492.108C903.812 492.108 904.988 492.385 905.993 492.939C907.008 493.493 907.792 494.32 908.346 495.419C908.908 496.51 909.189 497.874 909.189 499.51V512H905.367V499.97C905.367 498.53 904.996 497.413 904.255 496.621C903.513 495.82 902.482 495.419 901.161 495.419C900.258 495.419 899.448 495.611 898.732 495.994C898.025 496.378 897.466 496.94 897.057 497.682C896.657 498.415 896.456 499.301 896.456 500.341ZM922.753 512.396C920.819 512.396 919.153 511.983 917.755 511.156C916.366 510.321 915.292 509.149 914.533 507.641C913.783 506.124 913.408 504.347 913.408 502.31C913.408 500.298 913.783 498.526 914.533 496.991C915.292 495.457 916.349 494.26 917.704 493.399C919.067 492.538 920.661 492.108 922.485 492.108C923.593 492.108 924.667 492.291 925.706 492.658C926.746 493.024 927.68 493.599 928.506 494.384C929.333 495.168 929.985 496.186 930.462 497.439C930.939 498.683 931.178 500.196 931.178 501.977V503.332H915.569V500.469H927.432C927.432 499.463 927.228 498.572 926.819 497.797C926.41 497.013 925.834 496.395 925.093 495.943C924.36 495.491 923.499 495.266 922.51 495.266C921.437 495.266 920.499 495.53 919.698 496.058C918.905 496.578 918.292 497.26 917.857 498.104C917.431 498.939 917.218 499.847 917.218 500.827V503.064C917.218 504.376 917.448 505.493 917.908 506.413C918.377 507.334 919.029 508.037 919.864 508.523C920.699 509 921.675 509.239 922.792 509.239C923.516 509.239 924.177 509.136 924.773 508.932C925.37 508.719 925.885 508.403 926.32 507.986C926.755 507.568 927.087 507.053 927.317 506.439L930.935 507.091C930.645 508.156 930.126 509.089 929.376 509.891C928.634 510.683 927.701 511.301 926.576 511.744C925.459 512.179 924.185 512.396 922.753 512.396ZM945.253 512V485.818H949.076V495.547H949.306C949.528 495.138 949.847 494.665 950.265 494.128C950.682 493.591 951.262 493.122 952.003 492.722C952.745 492.312 953.725 492.108 954.944 492.108C956.529 492.108 957.944 492.509 959.188 493.31C960.432 494.111 961.408 495.266 962.116 496.774C962.831 498.283 963.189 500.098 963.189 502.22C963.189 504.342 962.836 506.162 962.128 507.679C961.421 509.187 960.449 510.351 959.214 511.169C957.978 511.979 956.567 512.384 954.982 512.384C953.789 512.384 952.813 512.183 952.055 511.783C951.305 511.382 950.716 510.913 950.29 510.376C949.864 509.839 949.536 509.362 949.306 508.945H948.986V512H945.253ZM948.999 502.182C948.999 503.562 949.199 504.773 949.6 505.812C950.001 506.852 950.58 507.666 951.339 508.254C952.097 508.834 953.026 509.124 954.126 509.124C955.268 509.124 956.222 508.821 956.989 508.216C957.756 507.602 958.336 506.771 958.728 505.723C959.128 504.675 959.329 503.494 959.329 502.182C959.329 500.886 959.133 499.723 958.741 498.692C958.357 497.661 957.778 496.847 957.002 496.25C956.235 495.653 955.276 495.355 954.126 495.355C953.018 495.355 952.08 495.641 951.313 496.212C950.555 496.783 949.979 497.58 949.587 498.602C949.195 499.625 948.999 500.818 948.999 502.182ZM975.945 512.396C974.01 512.396 972.344 511.983 970.946 511.156C969.557 510.321 968.483 509.149 967.725 507.641C966.975 506.124 966.6 504.347 966.6 502.31C966.6 500.298 966.975 498.526 967.725 496.991C968.483 495.457 969.54 494.26 970.895 493.399C972.259 492.538 973.852 492.108 975.676 492.108C976.784 492.108 977.858 492.291 978.898 492.658C979.938 493.024 980.871 493.599 981.698 494.384C982.524 495.168 983.176 496.186 983.654 497.439C984.131 498.683 984.369 500.196 984.369 501.977V503.332H968.76V500.469H980.624C980.624 499.463 980.419 498.572 980.01 497.797C979.601 497.013 979.026 496.395 978.284 495.943C977.551 495.491 976.691 495.266 975.702 495.266C974.628 495.266 973.691 495.53 972.889 496.058C972.097 496.578 971.483 497.26 971.048 498.104C970.622 498.939 970.409 499.847 970.409 500.827V503.064C970.409 504.376 970.639 505.493 971.1 506.413C971.568 507.334 972.22 508.037 973.056 508.523C973.891 509 974.867 509.239 975.983 509.239C976.708 509.239 977.368 509.136 977.965 508.932C978.561 508.719 979.077 508.403 979.512 507.986C979.946 507.568 980.279 507.053 980.509 506.439L984.127 507.091C983.837 508.156 983.317 509.089 982.567 509.891C981.825 510.683 980.892 511.301 979.767 511.744C978.651 512.179 977.377 512.396 975.945 512.396ZM1003.33 497.158L999.861 497.771C999.716 497.328 999.486 496.906 999.17 496.506C998.863 496.105 998.446 495.777 997.917 495.521C997.389 495.266 996.729 495.138 995.936 495.138C994.854 495.138 993.95 495.381 993.226 495.866C992.501 496.344 992.139 496.962 992.139 497.72C992.139 498.376 992.382 498.905 992.868 499.305C993.354 499.706 994.138 500.034 995.22 500.29L998.339 501.006C1000.15 501.423 1001.49 502.067 1002.38 502.936C1003.27 503.805 1003.71 504.935 1003.71 506.324C1003.71 507.5 1003.37 508.548 1002.69 509.469C1002.01 510.381 1001.07 511.097 999.861 511.616C998.659 512.136 997.265 512.396 995.68 512.396C993.481 512.396 991.687 511.928 990.298 510.99C988.909 510.044 988.057 508.702 987.741 506.963L991.436 506.401C991.666 507.364 992.139 508.092 992.855 508.587C993.571 509.072 994.504 509.315 995.655 509.315C996.907 509.315 997.909 509.055 998.659 508.536C999.409 508.007 999.784 507.364 999.784 506.605C999.784 505.991 999.554 505.476 999.094 505.058C998.642 504.641 997.947 504.325 997.01 504.112L993.686 503.384C991.854 502.966 990.498 502.301 989.621 501.389C988.751 500.477 988.317 499.322 988.317 497.925C988.317 496.766 988.64 495.751 989.288 494.882C989.936 494.013 990.831 493.335 991.973 492.849C993.115 492.355 994.423 492.108 995.898 492.108C998.02 492.108 999.69 492.568 1000.91 493.489C1002.13 494.401 1002.93 495.624 1003.33 497.158ZM1017.08 492.364V495.432H1006.35V492.364H1017.08ZM1009.23 487.659H1013.05V506.234C1013.05 506.976 1013.16 507.534 1013.38 507.909C1013.6 508.276 1013.89 508.527 1014.24 508.663C1014.6 508.791 1014.99 508.855 1015.4 508.855C1015.71 508.855 1015.98 508.834 1016.21 508.791C1016.44 508.749 1016.62 508.714 1016.75 508.689L1017.44 511.847C1017.21 511.932 1016.9 512.017 1016.49 512.102C1016.08 512.196 1015.57 512.247 1014.96 512.256C1013.95 512.273 1013.01 512.094 1012.14 511.719C1011.27 511.344 1010.57 510.764 1010.03 509.98C1009.5 509.196 1009.23 508.212 1009.23 507.027V487.659ZM1039.3 512.396C1037.36 512.396 1035.7 511.983 1034.3 511.156C1032.91 510.321 1031.83 509.149 1031.08 507.641C1030.33 506.124 1029.95 504.347 1029.95 502.31C1029.95 500.298 1030.33 498.526 1031.08 496.991C1031.83 495.457 1032.89 494.26 1034.25 493.399C1035.61 492.538 1037.2 492.108 1039.03 492.108C1040.14 492.108 1041.21 492.291 1042.25 492.658C1043.29 493.024 1044.22 493.599 1045.05 494.384C1045.88 495.168 1046.53 496.186 1047.01 497.439C1047.48 498.683 1047.72 500.196 1047.72 501.977V503.332H1032.11V500.469H1043.98C1043.98 499.463 1043.77 498.572 1043.36 497.797C1042.95 497.013 1042.38 496.395 1041.64 495.943C1040.9 495.491 1040.04 495.266 1039.05 495.266C1037.98 495.266 1037.04 495.53 1036.24 496.058C1035.45 496.578 1034.83 497.26 1034.4 498.104C1033.97 498.939 1033.76 499.847 1033.76 500.827V503.064C1033.76 504.376 1033.99 505.493 1034.45 506.413C1034.92 507.334 1035.57 508.037 1036.41 508.523C1037.24 509 1038.22 509.239 1039.33 509.239C1040.06 509.239 1040.72 509.136 1041.32 508.932C1041.91 508.719 1042.43 508.403 1042.86 507.986C1043.3 507.568 1043.63 507.053 1043.86 506.439L1047.48 507.091C1047.19 508.156 1046.67 509.089 1045.92 509.891C1045.18 510.683 1044.24 511.301 1043.12 511.744C1042 512.179 1040.73 512.396 1039.3 512.396ZM1054.52 492.364L1058.86 500.009L1063.23 492.364H1067.41L1061.28 502.182L1067.46 512H1063.28L1058.86 504.662L1054.45 512H1050.25L1056.36 502.182L1050.33 492.364H1054.52ZM1071.33 519.364V492.364H1075.07V495.547H1075.39C1075.61 495.138 1075.93 494.665 1076.34 494.128C1076.76 493.591 1077.34 493.122 1078.08 492.722C1078.82 492.312 1079.8 492.108 1081.02 492.108C1082.61 492.108 1084.02 492.509 1085.27 493.31C1086.51 494.111 1087.49 495.266 1088.2 496.774C1088.91 498.283 1089.27 500.098 1089.27 502.22C1089.27 504.342 1088.92 506.162 1088.21 507.679C1087.5 509.187 1086.53 510.351 1085.29 511.169C1084.06 511.979 1082.65 512.384 1081.06 512.384C1079.87 512.384 1078.89 512.183 1078.13 511.783C1077.38 511.382 1076.8 510.913 1076.37 510.376C1075.94 509.839 1075.62 509.362 1075.39 508.945H1075.16V519.364H1071.33ZM1075.08 502.182C1075.08 503.562 1075.28 504.773 1075.68 505.812C1076.08 506.852 1076.66 507.666 1077.42 508.254C1078.18 508.834 1079.11 509.124 1080.21 509.124C1081.35 509.124 1082.3 508.821 1083.07 508.216C1083.84 507.602 1084.42 506.771 1084.81 505.723C1085.21 504.675 1085.41 503.494 1085.41 502.182C1085.41 500.886 1085.21 499.723 1084.82 498.692C1084.44 497.661 1083.86 496.847 1083.08 496.25C1082.31 495.653 1081.36 495.355 1080.21 495.355C1079.1 495.355 1078.16 495.641 1077.39 496.212C1076.63 496.783 1076.06 497.58 1075.67 498.602C1075.28 499.625 1075.08 500.818 1075.08 502.182ZM1102.02 512.396C1100.08 512.396 1098.41 511.983 1097.02 511.156C1095.63 510.321 1094.55 509.149 1093.79 507.641C1093.04 506.124 1092.67 504.347 1092.67 502.31C1092.67 500.298 1093.04 498.526 1093.79 496.991C1094.55 495.457 1095.61 494.26 1096.97 493.399C1098.33 492.538 1099.92 492.108 1101.75 492.108C1102.85 492.108 1103.93 492.291 1104.97 492.658C1106.01 493.024 1106.94 493.599 1107.77 494.384C1108.59 495.168 1109.25 496.186 1109.72 497.439C1110.2 498.683 1110.44 500.196 1110.44 501.977V503.332H1094.83V500.469H1106.69C1106.69 499.463 1106.49 498.572 1106.08 497.797C1105.67 497.013 1105.1 496.395 1104.35 495.943C1103.62 495.491 1102.76 495.266 1101.77 495.266C1100.7 495.266 1099.76 495.53 1098.96 496.058C1098.17 496.578 1097.55 497.26 1097.12 498.104C1096.69 498.939 1096.48 499.847 1096.48 500.827V503.064C1096.48 504.376 1096.71 505.493 1097.17 506.413C1097.64 507.334 1098.29 508.037 1099.13 508.523C1099.96 509 1100.94 509.239 1102.05 509.239C1102.78 509.239 1103.44 509.136 1104.03 508.932C1104.63 508.719 1105.15 508.403 1105.58 507.986C1106.02 507.568 1106.35 507.053 1106.58 506.439L1110.2 507.091C1109.91 508.156 1109.39 509.089 1108.64 509.891C1107.9 510.683 1106.96 511.301 1105.84 511.744C1104.72 512.179 1103.45 512.396 1102.02 512.396ZM1114.68 512V492.364H1118.38V495.483H1118.58C1118.94 494.426 1119.57 493.595 1120.47 492.99C1121.38 492.376 1122.42 492.07 1123.57 492.07C1123.8 492.07 1124.09 492.078 1124.41 492.095C1124.74 492.112 1125 492.134 1125.19 492.159V495.815C1125.04 495.773 1124.76 495.726 1124.37 495.675C1123.98 495.615 1123.59 495.585 1123.2 495.585C1122.29 495.585 1121.49 495.777 1120.78 496.161C1120.08 496.536 1119.53 497.06 1119.12 497.733C1118.71 498.398 1118.5 499.156 1118.5 500.009V512H1114.68ZM1128.5 512V492.364H1132.32V512H1128.5ZM1130.43 489.334C1129.76 489.334 1129.19 489.112 1128.71 488.669C1128.25 488.217 1128.01 487.68 1128.01 487.058C1128.01 486.428 1128.25 485.891 1128.71 485.447C1129.19 484.996 1129.76 484.77 1130.43 484.77C1131.09 484.77 1131.66 484.996 1132.13 485.447C1132.61 485.891 1132.84 486.428 1132.84 487.058C1132.84 487.68 1132.61 488.217 1132.13 488.669C1131.66 489.112 1131.09 489.334 1130.43 489.334ZM1145.93 512.396C1143.99 512.396 1142.32 511.983 1140.93 511.156C1139.54 510.321 1138.46 509.149 1137.71 507.641C1136.96 506.124 1136.58 504.347 1136.58 502.31C1136.58 500.298 1136.96 498.526 1137.71 496.991C1138.46 495.457 1139.52 494.26 1140.88 493.399C1142.24 492.538 1143.83 492.108 1145.66 492.108C1146.76 492.108 1147.84 492.291 1148.88 492.658C1149.92 493.024 1150.85 493.599 1151.68 494.384C1152.5 495.168 1153.16 496.186 1153.63 497.439C1154.11 498.683 1154.35 500.196 1154.35 501.977V503.332H1138.74V500.469H1150.6C1150.6 499.463 1150.4 498.572 1149.99 497.797C1149.58 497.013 1149.01 496.395 1148.26 495.943C1147.53 495.491 1146.67 495.266 1145.68 495.266C1144.61 495.266 1143.67 495.53 1142.87 496.058C1142.08 496.578 1141.46 497.26 1141.03 498.104C1140.6 498.939 1140.39 499.847 1140.39 500.827V503.064C1140.39 504.376 1140.62 505.493 1141.08 506.413C1141.55 507.334 1142.2 508.037 1143.04 508.523C1143.87 509 1144.85 509.239 1145.96 509.239C1146.69 509.239 1147.35 509.136 1147.95 508.932C1148.54 508.719 1149.06 508.403 1149.49 507.986C1149.93 507.568 1150.26 507.053 1150.49 506.439L1154.11 507.091C1153.82 508.156 1153.3 509.089 1152.55 509.891C1151.81 510.683 1150.87 511.301 1149.75 511.744C1148.63 512.179 1147.36 512.396 1145.93 512.396ZM1162.41 500.341V512H1158.59V492.364H1162.26V495.56H1162.5C1162.95 494.52 1163.66 493.685 1164.63 493.054C1165.6 492.423 1166.82 492.108 1168.29 492.108C1169.63 492.108 1170.8 492.389 1171.81 492.952C1172.82 493.506 1173.6 494.332 1174.15 495.432C1174.7 496.531 1174.98 497.891 1174.98 499.51V512H1171.16V499.97C1171.16 498.547 1170.79 497.435 1170.05 496.634C1169.3 495.824 1168.29 495.419 1166.99 495.419C1166.1 495.419 1165.32 495.611 1164.63 495.994C1163.94 496.378 1163.4 496.94 1163 497.682C1162.61 498.415 1162.41 499.301 1162.41 500.341ZM1188.38 512.396C1186.48 512.396 1184.84 511.966 1183.47 511.105C1182.11 510.236 1181.06 509.038 1180.32 507.513C1179.59 505.987 1179.22 504.24 1179.22 502.271C1179.22 500.277 1179.6 498.517 1180.35 496.991C1181.1 495.457 1182.16 494.26 1183.52 493.399C1184.88 492.538 1186.49 492.108 1188.34 492.108C1189.83 492.108 1191.16 492.385 1192.33 492.939C1193.5 493.484 1194.44 494.251 1195.15 495.24C1195.88 496.229 1196.31 497.384 1196.44 498.705H1192.72C1192.52 497.784 1192.05 496.991 1191.32 496.327C1190.59 495.662 1189.62 495.33 1188.4 495.33C1187.34 495.33 1186.41 495.611 1185.6 496.173C1184.81 496.727 1184.19 497.52 1183.75 498.551C1183.31 499.574 1183.09 500.784 1183.09 502.182C1183.09 503.614 1183.3 504.849 1183.74 505.889C1184.17 506.929 1184.79 507.734 1185.58 508.305C1186.38 508.876 1187.32 509.162 1188.4 509.162C1189.13 509.162 1189.78 509.03 1190.37 508.766C1190.97 508.493 1191.47 508.105 1191.87 507.602C1192.28 507.099 1192.56 506.494 1192.72 505.787H1196.44C1196.31 507.057 1195.9 508.19 1195.2 509.188C1194.51 510.185 1193.59 510.969 1192.43 511.54C1191.28 512.111 1189.93 512.396 1188.38 512.396ZM1209 512.396C1207.06 512.396 1205.39 511.983 1204 511.156C1202.61 510.321 1201.53 509.149 1200.78 507.641C1200.03 506.124 1199.65 504.347 1199.65 502.31C1199.65 500.298 1200.03 498.526 1200.78 496.991C1201.53 495.457 1202.59 494.26 1203.95 493.399C1205.31 492.538 1206.9 492.108 1208.73 492.108C1209.84 492.108 1210.91 492.291 1211.95 492.658C1212.99 493.024 1213.92 493.599 1214.75 494.384C1215.58 495.168 1216.23 496.186 1216.7 497.439C1217.18 498.683 1217.42 500.196 1217.42 501.977V503.332H1201.81V500.469H1213.67C1213.67 499.463 1213.47 498.572 1213.06 497.797C1212.65 497.013 1212.08 496.395 1211.34 495.943C1210.6 495.491 1209.74 495.266 1208.75 495.266C1207.68 495.266 1206.74 495.53 1205.94 496.058C1205.15 496.578 1204.53 497.26 1204.1 498.104C1203.67 498.939 1203.46 499.847 1203.46 500.827V503.064C1203.46 504.376 1203.69 505.493 1204.15 506.413C1204.62 507.334 1205.27 508.037 1206.11 508.523C1206.94 509 1207.92 509.239 1209.03 509.239C1209.76 509.239 1210.42 509.136 1211.02 508.932C1211.61 508.719 1212.13 508.403 1212.56 507.986C1213 507.568 1213.33 507.053 1213.56 506.439L1217.18 507.091C1216.89 508.156 1216.37 509.089 1215.62 509.891C1214.88 510.683 1213.94 511.301 1212.82 511.744C1211.7 512.179 1210.43 512.396 1209 512.396ZM547.162 556V529.818H550.984V539.547H551.214C551.436 539.138 551.755 538.665 552.173 538.128C552.591 537.591 553.17 537.122 553.912 536.722C554.653 536.312 555.633 536.108 556.852 536.108C558.437 536.108 559.852 536.509 561.096 537.31C562.341 538.111 563.316 539.266 564.024 540.774C564.74 542.283 565.098 544.098 565.098 546.22C565.098 548.342 564.744 550.162 564.037 551.679C563.329 553.187 562.358 554.351 561.122 555.169C559.886 555.979 558.475 556.384 556.89 556.384C555.697 556.384 554.721 556.183 553.963 555.783C553.213 555.382 552.625 554.913 552.199 554.376C551.772 553.839 551.444 553.362 551.214 552.945H550.895V556H547.162ZM550.907 546.182C550.907 547.562 551.108 548.773 551.508 549.812C551.909 550.852 552.488 551.666 553.247 552.254C554.005 552.834 554.934 553.124 556.034 553.124C557.176 553.124 558.13 552.821 558.897 552.216C559.664 551.602 560.244 550.771 560.636 549.723C561.037 548.675 561.237 547.494 561.237 546.182C561.237 544.886 561.041 543.723 560.649 542.692C560.265 541.661 559.686 540.847 558.91 540.25C558.143 539.653 557.184 539.355 556.034 539.355C554.926 539.355 553.988 539.641 553.221 540.212C552.463 540.783 551.887 541.58 551.495 542.602C551.103 543.625 550.907 544.818 550.907 546.182ZM577.853 556.396C575.918 556.396 574.252 555.983 572.854 555.156C571.465 554.321 570.391 553.149 569.633 551.641C568.883 550.124 568.508 548.347 568.508 546.31C568.508 544.298 568.883 542.526 569.633 540.991C570.391 539.457 571.448 538.26 572.803 537.399C574.167 536.538 575.761 536.108 577.585 536.108C578.692 536.108 579.766 536.291 580.806 536.658C581.846 537.024 582.779 537.599 583.606 538.384C584.433 539.168 585.085 540.186 585.562 541.439C586.039 542.683 586.278 544.196 586.278 545.977V547.332H570.668V544.469H582.532C582.532 543.463 582.327 542.572 581.918 541.797C581.509 541.013 580.934 540.395 580.192 539.943C579.46 539.491 578.599 539.266 577.61 539.266C576.536 539.266 575.599 539.53 574.798 540.058C574.005 540.578 573.391 541.26 572.957 542.104C572.531 542.939 572.317 543.847 572.317 544.827V547.064C572.317 548.376 572.548 549.493 573.008 550.413C573.477 551.334 574.129 552.037 574.964 552.523C575.799 553 576.775 553.239 577.891 553.239C578.616 553.239 579.276 553.136 579.873 552.932C580.469 552.719 580.985 552.403 581.42 551.986C581.854 551.568 582.187 551.053 582.417 550.439L586.035 551.091C585.745 552.156 585.225 553.089 584.475 553.891C583.734 554.683 582.8 555.301 581.675 555.744C580.559 556.179 579.285 556.396 577.853 556.396ZM599.685 536.364V539.432H588.959V536.364H599.685ZM591.836 531.659H595.658V550.234C595.658 550.976 595.769 551.534 595.99 551.909C596.212 552.276 596.498 552.527 596.847 552.663C597.205 552.791 597.593 552.855 598.01 552.855C598.317 552.855 598.586 552.834 598.816 552.791C599.046 552.749 599.225 552.714 599.353 552.689L600.043 555.847C599.821 555.932 599.506 556.017 599.097 556.102C598.688 556.196 598.176 556.247 597.563 556.256C596.557 556.273 595.62 556.094 594.75 555.719C593.881 555.344 593.178 554.764 592.641 553.98C592.104 553.196 591.836 552.212 591.836 551.027V531.659ZM608.17 556L602.392 536.364H606.342L610.19 550.784H610.382L614.243 536.364H618.193L622.028 550.72H622.22L626.043 536.364H629.993L624.227 556H620.328L616.339 541.822H616.045L612.057 556H608.17ZM641.486 556.396C639.551 556.396 637.885 555.983 636.487 555.156C635.098 554.321 634.024 553.149 633.266 551.641C632.516 550.124 632.141 548.347 632.141 546.31C632.141 544.298 632.516 542.526 633.266 540.991C634.024 539.457 635.081 538.26 636.436 537.399C637.8 536.538 639.393 536.108 641.217 536.108C642.325 536.108 643.399 536.291 644.439 536.658C645.479 537.024 646.412 537.599 647.239 538.384C648.065 539.168 648.717 540.186 649.195 541.439C649.672 542.683 649.911 544.196 649.911 545.977V547.332H634.301V544.469H646.165C646.165 543.463 645.96 542.572 645.551 541.797C645.142 541.013 644.567 540.395 643.825 539.943C643.092 539.491 642.232 539.266 641.243 539.266C640.169 539.266 639.232 539.53 638.43 540.058C637.638 540.578 637.024 541.26 636.589 542.104C636.163 542.939 635.95 543.847 635.95 544.827V547.064C635.95 548.376 636.18 549.493 636.641 550.413C637.109 551.334 637.761 552.037 638.597 552.523C639.432 553 640.408 553.239 641.524 553.239C642.249 553.239 642.909 553.136 643.506 552.932C644.102 552.719 644.618 552.403 645.053 551.986C645.487 551.568 645.82 551.053 646.05 550.439L649.668 551.091C649.378 552.156 648.858 553.089 648.108 553.891C647.366 554.683 646.433 555.301 645.308 555.744C644.192 556.179 642.918 556.396 641.486 556.396ZM662.615 556.396C660.68 556.396 659.014 555.983 657.616 555.156C656.227 554.321 655.153 553.149 654.395 551.641C653.645 550.124 653.27 548.347 653.27 546.31C653.27 544.298 653.645 542.526 654.395 540.991C655.153 539.457 656.21 538.26 657.565 537.399C658.929 536.538 660.522 536.108 662.346 536.108C663.454 536.108 664.528 536.291 665.568 536.658C666.608 537.024 667.541 537.599 668.368 538.384C669.194 539.168 669.846 540.186 670.324 541.439C670.801 542.683 671.039 544.196 671.039 545.977V547.332H655.43V544.469H667.294C667.294 543.463 667.089 542.572 666.68 541.797C666.271 541.013 665.696 540.395 664.954 539.943C664.221 539.491 663.36 539.266 662.372 539.266C661.298 539.266 660.36 539.53 659.559 540.058C658.767 540.578 658.153 541.26 657.718 542.104C657.292 542.939 657.079 543.847 657.079 544.827V547.064C657.079 548.376 657.309 549.493 657.77 550.413C658.238 551.334 658.89 552.037 659.725 552.523C660.561 553 661.537 553.239 662.653 553.239C663.377 553.239 664.038 553.136 664.635 552.932C665.231 552.719 665.747 552.403 666.181 551.986C666.616 551.568 666.949 551.053 667.179 550.439L670.797 551.091C670.507 552.156 669.987 553.089 669.237 553.891C668.495 554.683 667.562 555.301 666.437 555.744C665.321 556.179 664.047 556.396 662.615 556.396ZM679.103 544.341V556H675.281V536.364H678.95V539.56H679.192C679.644 538.52 680.352 537.685 681.315 537.054C682.286 536.423 683.509 536.108 684.984 536.108C686.322 536.108 687.494 536.389 688.499 536.952C689.505 537.506 690.285 538.332 690.839 539.432C691.393 540.531 691.67 541.891 691.67 543.51V556H687.847V543.97C687.847 542.547 687.477 541.435 686.735 540.634C685.994 539.824 684.975 539.419 683.68 539.419C682.793 539.419 682.005 539.611 681.315 539.994C680.633 540.378 680.092 540.94 679.691 541.682C679.299 542.415 679.103 543.301 679.103 544.341ZM714.595 556.396C712.754 556.396 711.147 555.974 709.775 555.131C708.403 554.287 707.338 553.107 706.579 551.589C705.821 550.072 705.441 548.3 705.441 546.271C705.441 544.234 705.821 542.453 706.579 540.928C707.338 539.402 708.403 538.217 709.775 537.374C711.147 536.53 712.754 536.108 714.595 536.108C716.436 536.108 718.042 536.53 719.414 537.374C720.787 538.217 721.852 539.402 722.61 540.928C723.369 542.453 723.748 544.234 723.748 546.271C723.748 548.3 723.369 550.072 722.61 551.589C721.852 553.107 720.787 554.287 719.414 555.131C718.042 555.974 716.436 556.396 714.595 556.396ZM714.608 553.188C715.801 553.188 716.789 552.872 717.574 552.241C718.358 551.611 718.937 550.771 719.312 549.723C719.696 548.675 719.887 547.52 719.887 546.259C719.887 545.006 719.696 543.855 719.312 542.807C718.937 541.75 718.358 540.902 717.574 540.263C716.789 539.624 715.801 539.304 714.608 539.304C713.406 539.304 712.409 539.624 711.616 540.263C710.832 540.902 710.248 541.75 709.865 542.807C709.49 543.855 709.302 545.006 709.302 546.259C709.302 547.52 709.49 548.675 709.865 549.723C710.248 550.771 710.832 551.611 711.616 552.241C712.409 552.872 713.406 553.188 714.608 553.188ZM740.454 547.857V536.364H744.289V556H740.531V552.599H740.326C739.874 553.648 739.15 554.521 738.153 555.22C737.164 555.911 735.933 556.256 734.458 556.256C733.197 556.256 732.08 555.979 731.109 555.425C730.146 554.862 729.387 554.031 728.833 552.932C728.288 551.832 728.015 550.473 728.015 548.854V536.364H731.837V548.393C731.837 549.732 732.208 550.797 732.95 551.589C733.691 552.382 734.654 552.778 735.839 552.778C736.555 552.778 737.266 552.599 737.974 552.241C738.69 551.884 739.282 551.342 739.751 550.618C740.228 549.893 740.462 548.973 740.454 547.857ZM749.425 556V536.364H753.12V539.483H753.324C753.682 538.426 754.313 537.595 755.216 536.99C756.128 536.376 757.159 536.07 758.31 536.07C758.549 536.07 758.83 536.078 759.154 536.095C759.486 536.112 759.746 536.134 759.934 536.159V539.815C759.78 539.773 759.507 539.726 759.115 539.675C758.723 539.615 758.331 539.585 757.939 539.585C757.036 539.585 756.23 539.777 755.523 540.161C754.824 540.536 754.27 541.06 753.861 541.733C753.452 542.398 753.248 543.156 753.248 544.009V556H749.425ZM781.04 556.396C779.14 556.396 777.503 555.966 776.131 555.105C774.767 554.236 773.719 553.038 772.986 551.513C772.253 549.987 771.887 548.24 771.887 546.271C771.887 544.277 772.262 542.517 773.012 540.991C773.762 539.457 774.819 538.26 776.182 537.399C777.546 536.538 779.152 536.108 781.002 536.108C782.493 536.108 783.823 536.385 784.99 536.939C786.158 537.484 787.1 538.251 787.816 539.24C788.54 540.229 788.971 541.384 789.107 542.705H785.387C785.182 541.784 784.713 540.991 783.98 540.327C783.256 539.662 782.284 539.33 781.066 539.33C780 539.33 779.067 539.611 778.266 540.173C777.473 540.727 776.855 541.52 776.412 542.551C775.969 543.574 775.748 544.784 775.748 546.182C775.748 547.614 775.965 548.849 776.4 549.889C776.834 550.929 777.448 551.734 778.24 552.305C779.042 552.876 779.983 553.162 781.066 553.162C781.79 553.162 782.446 553.03 783.034 552.766C783.631 552.493 784.13 552.105 784.53 551.602C784.939 551.099 785.225 550.494 785.387 549.787H789.107C788.971 551.057 788.557 552.19 787.867 553.188C787.176 554.185 786.252 554.969 785.093 555.54C783.942 556.111 782.591 556.396 781.04 556.396ZM805.634 547.857V536.364H809.469V556H805.71V552.599H805.506C805.054 553.648 804.33 554.521 803.332 555.22C802.344 555.911 801.112 556.256 799.638 556.256C798.376 556.256 797.26 555.979 796.288 555.425C795.325 554.862 794.567 554.031 794.013 552.932C793.467 551.832 793.195 550.473 793.195 548.854V536.364H797.017V548.393C797.017 549.732 797.388 550.797 798.129 551.589C798.871 552.382 799.834 552.778 801.018 552.778C801.734 552.778 802.446 552.599 803.153 552.241C803.869 551.884 804.462 551.342 804.93 550.618C805.408 549.893 805.642 548.973 805.634 547.857ZM829.319 541.158L825.855 541.771C825.71 541.328 825.48 540.906 825.164 540.506C824.858 540.105 824.44 539.777 823.912 539.521C823.383 539.266 822.723 539.138 821.93 539.138C820.848 539.138 819.944 539.381 819.22 539.866C818.495 540.344 818.133 540.962 818.133 541.72C818.133 542.376 818.376 542.905 818.862 543.305C819.348 543.706 820.132 544.034 821.214 544.29L824.333 545.006C826.14 545.423 827.487 546.067 828.373 546.936C829.26 547.805 829.703 548.935 829.703 550.324C829.703 551.5 829.362 552.548 828.68 553.469C828.007 554.381 827.065 555.097 825.855 555.616C824.653 556.136 823.26 556.396 821.674 556.396C819.475 556.396 817.681 555.928 816.292 554.99C814.903 554.044 814.051 552.702 813.735 550.963L817.43 550.401C817.66 551.364 818.133 552.092 818.849 552.587C819.565 553.072 820.498 553.315 821.649 553.315C822.902 553.315 823.903 553.055 824.653 552.536C825.403 552.007 825.778 551.364 825.778 550.605C825.778 549.991 825.548 549.476 825.088 549.058C824.636 548.641 823.941 548.325 823.004 548.112L819.68 547.384C817.848 546.966 816.493 546.301 815.615 545.389C814.745 544.477 814.311 543.322 814.311 541.925C814.311 540.766 814.635 539.751 815.282 538.882C815.93 538.013 816.825 537.335 817.967 536.849C819.109 536.355 820.417 536.108 821.892 536.108C824.014 536.108 825.684 536.568 826.903 537.489C828.122 538.401 828.927 539.624 829.319 541.158ZM843.072 536.364V539.432H832.346V536.364H843.072ZM835.222 531.659H839.045V550.234C839.045 550.976 839.156 551.534 839.377 551.909C839.599 552.276 839.884 552.527 840.234 552.663C840.592 552.791 840.979 552.855 841.397 552.855C841.704 552.855 841.972 552.834 842.202 552.791C842.433 552.749 842.612 552.714 842.739 552.689L843.43 555.847C843.208 555.932 842.893 556.017 842.484 556.102C842.075 556.196 841.563 556.247 840.95 556.256C839.944 556.273 839.006 556.094 838.137 555.719C837.268 555.344 836.565 554.764 836.028 553.98C835.491 553.196 835.222 552.212 835.222 551.027V531.659ZM855.36 556.396C853.52 556.396 851.913 555.974 850.541 555.131C849.169 554.287 848.103 553.107 847.345 551.589C846.586 550.072 846.207 548.3 846.207 546.271C846.207 544.234 846.586 542.453 847.345 540.928C848.103 539.402 849.169 538.217 850.541 537.374C851.913 536.53 853.52 536.108 855.36 536.108C857.201 536.108 858.808 536.53 860.18 537.374C861.552 538.217 862.618 539.402 863.376 540.928C864.135 542.453 864.514 544.234 864.514 546.271C864.514 548.3 864.135 550.072 863.376 551.589C862.618 553.107 861.552 554.287 860.18 555.131C858.808 555.974 857.201 556.396 855.36 556.396ZM855.373 553.188C856.566 553.188 857.555 552.872 858.339 552.241C859.123 551.611 859.703 550.771 860.078 549.723C860.461 548.675 860.653 547.52 860.653 546.259C860.653 545.006 860.461 543.855 860.078 542.807C859.703 541.75 859.123 540.902 858.339 540.263C857.555 539.624 856.566 539.304 855.373 539.304C854.172 539.304 853.174 539.624 852.382 540.263C851.598 540.902 851.014 541.75 850.63 542.807C850.255 543.855 850.068 545.006 850.068 546.259C850.068 547.52 850.255 548.675 850.63 549.723C851.014 550.771 851.598 551.611 852.382 552.241C853.174 552.872 854.172 553.188 855.373 553.188ZM868.781 556V536.364H872.45V539.56H872.692C873.102 538.477 873.771 537.634 874.7 537.028C875.629 536.415 876.741 536.108 878.036 536.108C879.349 536.108 880.448 536.415 881.335 537.028C882.229 537.642 882.89 538.486 883.316 539.56H883.521C883.989 538.511 884.735 537.676 885.758 537.054C886.781 536.423 887.999 536.108 889.414 536.108C891.195 536.108 892.648 536.666 893.773 537.783C894.907 538.899 895.474 540.582 895.474 542.832V556H891.651V543.19C891.651 541.861 891.289 540.898 890.565 540.301C889.84 539.705 888.975 539.406 887.969 539.406C886.725 539.406 885.758 539.79 885.067 540.557C884.377 541.315 884.032 542.291 884.032 543.484V556H880.222V542.947C880.222 541.882 879.89 541.026 879.225 540.378C878.56 539.73 877.695 539.406 876.63 539.406C875.906 539.406 875.237 539.598 874.623 539.982C874.018 540.357 873.528 540.881 873.153 541.554C872.786 542.227 872.603 543.007 872.603 543.893V556H868.781ZM909.06 556.396C907.125 556.396 905.459 555.983 904.061 555.156C902.672 554.321 901.598 553.149 900.84 551.641C900.09 550.124 899.715 548.347 899.715 546.31C899.715 544.298 900.09 542.526 900.84 540.991C901.598 539.457 902.655 538.26 904.01 537.399C905.374 536.538 906.968 536.108 908.792 536.108C909.9 536.108 910.973 536.291 912.013 536.658C913.053 537.024 913.986 537.599 914.813 538.384C915.64 539.168 916.292 540.186 916.769 541.439C917.246 542.683 917.485 544.196 917.485 545.977V547.332H901.875V544.469H913.739C913.739 543.463 913.534 542.572 913.125 541.797C912.716 541.013 912.141 540.395 911.4 539.943C910.667 539.491 909.806 539.266 908.817 539.266C907.743 539.266 906.806 539.53 906.005 540.058C905.212 540.578 904.598 541.26 904.164 542.104C903.738 542.939 903.525 543.847 903.525 544.827V547.064C903.525 548.376 903.755 549.493 904.215 550.413C904.684 551.334 905.336 552.037 906.171 552.523C907.006 553 907.982 553.239 909.098 553.239C909.823 553.239 910.483 553.136 911.08 552.932C911.676 552.719 912.192 552.403 912.627 551.986C913.061 551.568 913.394 551.053 913.624 550.439L917.242 551.091C916.952 552.156 916.432 553.089 915.682 553.891C914.941 554.683 914.007 555.301 912.882 555.744C911.766 556.179 910.492 556.396 909.06 556.396ZM921.726 556V536.364H925.42V539.483H925.625C925.983 538.426 926.614 537.595 927.517 536.99C928.429 536.376 929.46 536.07 930.611 536.07C930.849 536.07 931.131 536.078 931.455 536.095C931.787 536.112 932.047 536.134 932.234 536.159V539.815C932.081 539.773 931.808 539.726 931.416 539.675C931.024 539.615 930.632 539.585 930.24 539.585C929.337 539.585 928.531 539.777 927.824 540.161C927.125 540.536 926.571 541.06 926.162 541.733C925.753 542.398 925.548 543.156 925.548 544.009V556H921.726ZM950.257 541.158L946.792 541.771C946.647 541.328 946.417 540.906 946.102 540.506C945.795 540.105 945.377 539.777 944.849 539.521C944.321 539.266 943.66 539.138 942.868 539.138C941.785 539.138 940.882 539.381 940.157 539.866C939.433 540.344 939.071 540.962 939.071 541.72C939.071 542.376 939.314 542.905 939.799 543.305C940.285 543.706 941.069 544.034 942.152 544.29L945.271 545.006C947.078 545.423 948.424 546.067 949.311 546.936C950.197 547.805 950.64 548.935 950.64 550.324C950.64 551.5 950.299 552.548 949.618 553.469C948.944 554.381 948.002 555.097 946.792 555.616C945.591 556.136 944.197 556.396 942.612 556.396C940.413 556.396 938.619 555.928 937.23 554.99C935.841 554.044 934.988 552.702 934.673 550.963L938.368 550.401C938.598 551.364 939.071 552.092 939.787 552.587C940.502 553.072 941.436 553.315 942.586 553.315C943.839 553.315 944.841 553.055 945.591 552.536C946.341 552.007 946.716 551.364 946.716 550.605C946.716 549.991 946.485 549.476 946.025 549.058C945.574 548.641 944.879 548.325 943.941 548.112L940.618 547.384C938.785 546.966 937.43 546.301 936.552 545.389C935.683 544.477 935.248 543.322 935.248 541.925C935.248 540.766 935.572 539.751 936.22 538.882C936.868 538.013 937.762 537.335 938.904 536.849C940.047 536.355 941.355 536.108 942.829 536.108C944.951 536.108 946.622 536.568 947.841 537.489C949.059 538.401 949.865 539.624 950.257 541.158ZM970.085 556.435C968.841 556.435 967.716 556.205 966.71 555.744C965.704 555.276 964.907 554.598 964.319 553.712C963.74 552.825 963.45 551.739 963.45 550.452C963.45 549.344 963.663 548.432 964.089 547.716C964.515 547 965.091 546.433 965.815 546.016C966.539 545.598 967.349 545.283 968.244 545.07C969.139 544.857 970.051 544.695 970.98 544.584C972.156 544.447 973.11 544.337 973.843 544.251C974.576 544.158 975.109 544.009 975.441 543.804C975.774 543.599 975.94 543.267 975.94 542.807V542.717C975.94 541.601 975.625 540.736 974.994 540.122C974.372 539.509 973.443 539.202 972.207 539.202C970.92 539.202 969.906 539.487 969.164 540.058C968.431 540.621 967.924 541.247 967.643 541.938L964.051 541.119C964.477 539.926 965.099 538.963 965.917 538.23C966.744 537.489 967.694 536.952 968.768 536.619C969.842 536.278 970.971 536.108 972.156 536.108C972.94 536.108 973.771 536.202 974.649 536.389C975.535 536.568 976.362 536.901 977.129 537.386C977.904 537.872 978.539 538.567 979.034 539.47C979.528 540.365 979.775 541.528 979.775 542.96V556H976.042V553.315H975.889C975.642 553.81 975.271 554.295 974.777 554.773C974.282 555.25 973.647 555.646 972.872 555.962C972.096 556.277 971.167 556.435 970.085 556.435ZM970.916 553.366C971.973 553.366 972.876 553.158 973.626 552.74C974.385 552.322 974.96 551.777 975.352 551.104C975.752 550.422 975.953 549.693 975.953 548.918V546.386C975.816 546.523 975.552 546.651 975.16 546.77C974.777 546.881 974.338 546.979 973.843 547.064C973.349 547.141 972.868 547.213 972.399 547.281C971.93 547.341 971.538 547.392 971.223 547.435C970.481 547.528 969.804 547.686 969.19 547.908C968.585 548.129 968.099 548.449 967.733 548.866C967.375 549.276 967.196 549.821 967.196 550.503C967.196 551.449 967.545 552.165 968.244 552.651C968.943 553.128 969.833 553.366 970.916 553.366ZM988.689 544.341V556H984.866V536.364H988.536V539.56H988.778C989.23 538.52 989.938 537.685 990.901 537.054C991.872 536.423 993.095 536.108 994.57 536.108C995.908 536.108 997.08 536.389 998.085 536.952C999.091 537.506 999.871 538.332 1000.42 539.432C1000.98 540.531 1001.26 541.891 1001.26 543.51V556H997.433V543.97C997.433 542.547 997.063 541.435 996.321 540.634C995.58 539.824 994.561 539.419 993.266 539.419C992.379 539.419 991.591 539.611 990.901 539.994C990.219 540.378 989.678 540.94 989.277 541.682C988.885 542.415 988.689 543.301 988.689 544.341ZM1013.73 556.384C1012.15 556.384 1010.73 555.979 1009.49 555.169C1008.25 554.351 1007.28 553.187 1006.57 551.679C1005.88 550.162 1005.53 548.342 1005.53 546.22C1005.53 544.098 1005.88 542.283 1006.59 540.774C1007.3 539.266 1008.28 538.111 1009.53 537.31C1010.77 536.509 1012.18 536.108 1013.76 536.108C1014.98 536.108 1015.96 536.312 1016.7 536.722C1017.45 537.122 1018.03 537.591 1018.44 538.128C1018.86 538.665 1019.18 539.138 1019.41 539.547H1019.64V529.818H1023.46V556H1019.73V552.945H1019.41C1019.18 553.362 1018.85 553.839 1018.41 554.376C1017.99 554.913 1017.4 555.382 1016.65 555.783C1015.9 556.183 1014.93 556.384 1013.73 556.384ZM1014.58 553.124C1015.68 553.124 1016.61 552.834 1017.36 552.254C1018.13 551.666 1018.71 550.852 1019.1 549.812C1019.5 548.773 1019.7 547.562 1019.7 546.182C1019.7 544.818 1019.51 543.625 1019.12 542.602C1018.72 541.58 1018.15 540.783 1017.39 540.212C1016.63 539.641 1015.69 539.355 1014.58 539.355C1013.43 539.355 1012.47 539.653 1011.7 540.25C1010.93 540.847 1010.35 541.661 1009.96 542.692C1009.58 543.723 1009.39 544.886 1009.39 546.182C1009.39 547.494 1009.58 548.675 1009.97 549.723C1010.37 550.771 1010.95 551.602 1011.71 552.216C1012.49 552.821 1013.44 553.124 1014.58 553.124ZM1045.8 556.384C1044.21 556.384 1042.8 555.979 1041.55 555.169C1040.32 554.351 1039.34 553.187 1038.64 551.679C1037.94 550.162 1037.59 548.342 1037.59 546.22C1037.59 544.098 1037.94 542.283 1038.65 540.774C1039.37 539.266 1040.35 538.111 1041.59 537.31C1042.83 536.509 1044.24 536.108 1045.82 536.108C1047.04 536.108 1048.02 536.312 1048.76 536.722C1049.51 537.122 1050.09 537.591 1050.5 538.128C1050.92 538.665 1051.24 539.138 1051.47 539.547H1051.7V529.818H1055.52V556H1051.79V552.945H1051.47C1051.24 553.362 1050.91 553.839 1050.47 554.376C1050.05 554.913 1049.46 555.382 1048.71 555.783C1047.96 556.183 1046.99 556.384 1045.8 556.384ZM1046.64 553.124C1047.74 553.124 1048.67 552.834 1049.43 552.254C1050.19 551.666 1050.77 550.852 1051.16 549.812C1051.57 548.773 1051.77 547.562 1051.77 546.182C1051.77 544.818 1051.57 543.625 1051.18 542.602C1050.79 541.58 1050.21 540.783 1049.45 540.212C1048.69 539.641 1047.76 539.355 1046.64 539.355C1045.49 539.355 1044.53 539.653 1043.76 540.25C1043 540.847 1042.42 541.661 1042.02 542.692C1041.64 543.723 1041.45 544.886 1041.45 546.182C1041.45 547.494 1041.64 548.675 1042.04 549.723C1042.43 550.771 1043.01 551.602 1043.78 552.216C1044.55 552.821 1045.51 553.124 1046.64 553.124ZM1069.25 556.396C1067.41 556.396 1065.8 555.974 1064.43 555.131C1063.06 554.287 1061.99 553.107 1061.24 551.589C1060.48 550.072 1060.1 548.3 1060.1 546.271C1060.1 544.234 1060.48 542.453 1061.24 540.928C1061.99 539.402 1063.06 538.217 1064.43 537.374C1065.8 536.53 1067.41 536.108 1069.25 536.108C1071.09 536.108 1072.7 536.53 1074.07 537.374C1075.44 538.217 1076.51 539.402 1077.27 540.928C1078.03 542.453 1078.4 544.234 1078.4 546.271C1078.4 548.3 1078.03 550.072 1077.27 551.589C1076.51 553.107 1075.44 554.287 1074.07 555.131C1072.7 555.974 1071.09 556.396 1069.25 556.396ZM1069.26 553.188C1070.46 553.188 1071.45 552.872 1072.23 552.241C1073.01 551.611 1073.59 550.771 1073.97 549.723C1074.35 548.675 1074.54 547.52 1074.54 546.259C1074.54 545.006 1074.35 543.855 1073.97 542.807C1073.59 541.75 1073.01 540.902 1072.23 540.263C1071.45 539.624 1070.46 539.304 1069.26 539.304C1068.06 539.304 1067.06 539.624 1066.27 540.263C1065.49 540.902 1064.9 541.75 1064.52 542.807C1064.15 543.855 1063.96 545.006 1063.96 546.259C1063.96 547.52 1064.15 548.675 1064.52 549.723C1064.9 550.771 1065.49 551.611 1066.27 552.241C1067.06 552.872 1068.06 553.188 1069.26 553.188ZM1090.94 556.396C1089.04 556.396 1087.41 555.966 1086.03 555.105C1084.67 554.236 1083.62 553.038 1082.89 551.513C1082.16 549.987 1081.79 548.24 1081.79 546.271C1081.79 544.277 1082.16 542.517 1082.91 540.991C1083.66 539.457 1084.72 538.26 1086.08 537.399C1087.45 536.538 1089.05 536.108 1090.9 536.108C1092.4 536.108 1093.73 536.385 1094.89 536.939C1096.06 537.484 1097 538.251 1097.72 539.24C1098.44 540.229 1098.87 541.384 1099.01 542.705H1095.29C1095.08 541.784 1094.62 540.991 1093.88 540.327C1093.16 539.662 1092.19 539.33 1090.97 539.33C1089.9 539.33 1088.97 539.611 1088.17 540.173C1087.38 540.727 1086.76 541.52 1086.31 542.551C1085.87 543.574 1085.65 544.784 1085.65 546.182C1085.65 547.614 1085.87 548.849 1086.3 549.889C1086.74 550.929 1087.35 551.734 1088.14 552.305C1088.94 552.876 1089.89 553.162 1090.97 553.162C1091.69 553.162 1092.35 553.03 1092.94 552.766C1093.53 552.493 1094.03 552.105 1094.43 551.602C1094.84 551.099 1095.13 550.494 1095.29 549.787H1099.01C1098.87 551.057 1098.46 552.19 1097.77 553.188C1097.08 554.185 1096.15 554.969 1095 555.54C1093.84 556.111 1092.49 556.396 1090.94 556.396ZM1112.26 536.364V539.432H1101.54V536.364H1112.26ZM1104.41 531.659H1108.24V550.234C1108.24 550.976 1108.35 551.534 1108.57 551.909C1108.79 552.276 1109.08 552.527 1109.43 552.663C1109.78 552.791 1110.17 552.855 1110.59 552.855C1110.9 552.855 1111.16 552.834 1111.39 552.791C1111.62 552.749 1111.8 552.714 1111.93 552.689L1112.62 555.847C1112.4 555.932 1112.08 556.017 1111.68 556.102C1111.27 556.196 1110.75 556.247 1110.14 556.256C1109.14 556.273 1108.2 556.094 1107.33 555.719C1106.46 555.344 1105.76 554.764 1105.22 553.98C1104.68 553.196 1104.41 552.212 1104.41 551.027V531.659ZM1124.55 556.396C1122.71 556.396 1121.1 555.974 1119.73 555.131C1118.36 554.287 1117.29 553.107 1116.54 551.589C1115.78 550.072 1115.4 548.3 1115.4 546.271C1115.4 544.234 1115.78 542.453 1116.54 540.928C1117.29 539.402 1118.36 538.217 1119.73 537.374C1121.1 536.53 1122.71 536.108 1124.55 536.108C1126.39 536.108 1128 536.53 1129.37 537.374C1130.74 538.217 1131.81 539.402 1132.57 540.928C1133.33 542.453 1133.71 544.234 1133.71 546.271C1133.71 548.3 1133.33 550.072 1132.57 551.589C1131.81 553.107 1130.74 554.287 1129.37 555.131C1128 555.974 1126.39 556.396 1124.55 556.396ZM1124.56 553.188C1125.76 553.188 1126.75 552.872 1127.53 552.241C1128.31 551.611 1128.89 550.771 1129.27 549.723C1129.65 548.675 1129.84 547.52 1129.84 546.259C1129.84 545.006 1129.65 543.855 1129.27 542.807C1128.89 541.75 1128.31 540.902 1127.53 540.263C1126.75 539.624 1125.76 539.304 1124.56 539.304C1123.36 539.304 1122.37 539.624 1121.57 540.263C1120.79 540.902 1120.21 541.75 1119.82 542.807C1119.45 543.855 1119.26 545.006 1119.26 546.259C1119.26 547.52 1119.45 548.675 1119.82 549.723C1120.21 550.771 1120.79 551.611 1121.57 552.241C1122.37 552.872 1123.36 553.188 1124.56 553.188ZM1137.97 556V536.364H1141.67V539.483H1141.87C1142.23 538.426 1142.86 537.595 1143.76 536.99C1144.68 536.376 1145.71 536.07 1146.86 536.07C1147.1 536.07 1147.38 536.078 1147.7 536.095C1148.03 536.112 1148.29 536.134 1148.48 536.159V539.815C1148.33 539.773 1148.05 539.726 1147.66 539.675C1147.27 539.615 1146.88 539.585 1146.49 539.585C1145.58 539.585 1144.78 539.777 1144.07 540.161C1143.37 540.536 1142.82 541.06 1142.41 541.733C1142 542.398 1141.79 543.156 1141.79 544.009V556H1137.97ZM1166.5 541.158L1163.04 541.771C1162.89 541.328 1162.66 540.906 1162.35 540.506C1162.04 540.105 1161.62 539.777 1161.1 539.521C1160.57 539.266 1159.91 539.138 1159.11 539.138C1158.03 539.138 1157.13 539.381 1156.4 539.866C1155.68 540.344 1155.32 540.962 1155.32 541.72C1155.32 542.376 1155.56 542.905 1156.05 543.305C1156.53 543.706 1157.32 544.034 1158.4 544.29L1161.52 545.006C1163.32 545.423 1164.67 546.067 1165.56 546.936C1166.44 547.805 1166.89 548.935 1166.89 550.324C1166.89 551.5 1166.55 552.548 1165.86 553.469C1165.19 554.381 1164.25 555.097 1163.04 555.616C1161.84 556.136 1160.44 556.396 1158.86 556.396C1156.66 556.396 1154.87 555.928 1153.48 554.99C1152.09 554.044 1151.23 552.702 1150.92 550.963L1154.61 550.401C1154.84 551.364 1155.32 552.092 1156.03 552.587C1156.75 553.072 1157.68 553.315 1158.83 553.315C1160.09 553.315 1161.09 553.055 1161.84 552.536C1162.59 552.007 1162.96 551.364 1162.96 550.605C1162.96 549.991 1162.73 549.476 1162.27 549.058C1161.82 548.641 1161.12 548.325 1160.19 548.112L1156.86 547.384C1155.03 546.966 1153.68 546.301 1152.8 545.389C1151.93 544.477 1151.49 543.322 1151.49 541.925C1151.49 540.766 1151.82 539.751 1152.47 538.882C1153.11 538.013 1154.01 537.335 1155.15 536.849C1156.29 536.355 1157.6 536.108 1159.08 536.108C1161.2 536.108 1162.87 536.568 1164.09 537.489C1165.31 538.401 1166.11 539.624 1166.5 541.158ZM1173.61 556.243C1172.91 556.243 1172.31 555.996 1171.81 555.501C1171.3 554.999 1171.05 554.393 1171.05 553.686C1171.05 552.987 1171.3 552.391 1171.81 551.896C1172.31 551.393 1172.91 551.142 1173.61 551.142C1174.31 551.142 1174.91 551.393 1175.41 551.896C1175.91 552.391 1176.16 552.987 1176.16 553.686C1176.16 554.155 1176.05 554.585 1175.81 554.977C1175.58 555.361 1175.27 555.668 1174.89 555.898C1174.5 556.128 1174.08 556.243 1173.61 556.243Z" fill="black" fill-opacity="0.65"/>
<path d="M128.448 415V394.545C128.448 388.509 129.585 382.152 131.857 375.476C134.13 368.8 137.29 362.408 141.339 356.3C145.387 350.192 150.146 344.972 155.614 340.639L171.381 351.932C167.049 358.253 163.356 364.858 160.302 371.747C157.248 378.636 155.721 386.129 155.721 394.226V415H128.448ZM182.781 415V394.545C182.781 388.509 183.917 382.152 186.19 375.476C188.462 368.8 191.623 362.408 195.671 356.3C199.719 350.192 204.478 344.972 209.947 340.639L225.714 351.932C221.381 358.253 217.688 364.858 214.634 371.747C211.58 378.636 210.053 386.129 210.053 394.226V415H182.781Z" fill="black" fill-opacity="0.69"/>
<defs>
<filter id="filter0_bd_469_1167" x="217" y="-20" width="403" height="325" filterUnits="userSpaceOnUse" color-interpolation-filters="sRGB">
<feFlood flood-opacity="0" result="BackgroundImageFix"/>
<feGaussianBlur in="BackgroundImageFix" stdDeviation="10"/>
<feComposite in2="SourceAlpha" operator="in" result="effect1_backgroundBlur_469_1167"/>
<feColorMatrix in="SourceAlpha" type="matrix" values="0 0 0 0 0 0 0 0 0 0 0 0 0 0 0 0 0 0 127 0" result="hardAlpha"/>
<feMorphology radius="3" operator="dilate" in="SourceAlpha" result="effect2_dropShadow_469_1167"/>
<feOffset dy="6"/>
<feComposite in2="hardAlpha" operator="out"/>
<feColorMatrix type="matrix" values="0 0 0 0 0 0 0 0 0 0 0 0 0 0 0 0 0 0 0.1 0"/>
<feBlend mode="normal" in2="effect1_backgroundBlur_469_1167" result="effect2_dropShadow_469_1167"/>
<feBlend mode="normal" in="SourceGraphic" in2="effect2_dropShadow_469_1167" result="shape"/>
</filter>
<filter id="filter1_bd_469_1167" x="663" y="-20" width="403" height="325" filterUnits="userSpaceOnUse" color-interpolation-filters="sRGB">
<feFlood flood-opacity="0" result="BackgroundImageFix"/>
<feGaussianBlur in="BackgroundImageFix" stdDeviation="10"/>
<feComposite in2="SourceAlpha" operator="in" result="effect1_backgroundBlur_469_1167"/>
<feColorMatrix in="SourceAlpha" type="matrix" values="0 0 0 0 0 0 0 0 0 0 0 0 0 0 0 0 0 0 127 0" result="hardAlpha"/>
<feMorphology radius="3" operator="dilate" in="SourceAlpha" result="effect2_dropShadow_469_1167"/>
<feOffset dy="6"/>
<feComposite in2="hardAlpha" operator="out"/>
<feColorMatrix type="matrix" values="0 0 0 0 0 0 0 0 0 0 0 0 0 0 0 0 0 0 0.1 0"/>
<feBlend mode="normal" in2="effect1_backgroundBlur_469_1167" result="effect2_dropShadow_469_1167"/>
<feBlend mode="normal" in="SourceGraphic" in2="effect2_dropShadow_469_1167" result="shape"/>
</filter>
<filter id="filter2_bd_469_1167" x="1109" y="-20" width="403" height="325" filterUnits="userSpaceOnUse" color-interpolation-filters="sRGB">
<feFlood flood-opacity="0" result="BackgroundImageFix"/>
<feGaussianBlur in="BackgroundImageFix" stdDeviation="10"/>
<feComposite in2="SourceAlpha" operator="in" result="effect1_backgroundBlur_469_1167"/>
<feColorMatrix in="SourceAlpha" type="matrix" values="0 0 0 0 0 0 0 0 0 0 0 0 0 0 0 0 0 0 127 0" result="hardAlpha"/>
<feMorphology radius="3" operator="dilate" in="SourceAlpha" result="effect2_dropShadow_469_1167"/>
<feOffset dy="6"/>
<feComposite in2="hardAlpha" operator="out"/>
<feColorMatrix type="matrix" values="0 0 0 0 0 0 0 0 0 0 0 0 0 0 0 0 0 0 0.1 0"/>
<feBlend mode="normal" in2="effect1_backgroundBlur_469_1167" result="effect2_dropShadow_469_1167"/>
<feBlend mode="normal" in="SourceGraphic" in2="effect2_dropShadow_469_1167" result="shape"/>
</filter>
</defs>
</svg>
